<?xml version="1.0" encoding="utf-8"?>
<!-- Generator: Adobe Illustrator 24.0.2, SVG Export Plug-In . SVG Version: 6.00 Build 0)  -->
<svg version="1.1" xmlns="http://www.w3.org/2000/svg" xmlns:xlink="http://www.w3.org/1999/xlink" x="0px" y="0px"
	 viewBox="0 0 1920 1250" style="enable-background:new 0 0 1920 1250;" xml:space="preserve">
<style type="text/css">
	.st0{fill:url(#SVGID_1_);}
	.st1{fill:url(#SVGID_2_);}
	.st2{fill:url(#SVGID_3_);}
	.st3{opacity:0.39;}
	.st4{fill:#6E66AF;}
	.st5{fill:url(#SVGID_4_);}
	.st6{fill:#B75742;}
	.st7{fill:#355389;}
	.st8{fill:#466EB6;}
	.st9{fill:#F7A491;}
	.st10{fill:#F48C7F;}
	.st11{fill:#3C8F7C;}
	.st12{fill:#13375B;}
	.st13{fill:#50BFA5;}
	.st14{fill:#F47458;}
	.st15{fill:#86B1F2;}
	.st16{fill:#184655;}
	.st17{fill:#96D9C9;}
	.st18{fill:#F7CC7F;}
	.st19{fill:#FAE0B2;}
	.st20{fill:#9BC1F9;}
	.st21{fill:#F4C0B8;}
	.st22{fill:#966259;}
	.st23{fill:#6B4744;}
	.st24{fill:#F27A6A;}
	.st25{fill:#F79C8D;}
	.st26{fill:#EFEFEF;}
	.st27{fill:url(#SVGID_5_);}
	.st28{fill:url(#SVGID_6_);}
	.st29{fill:#6151AF;}
	.st30{fill:url(#SVGID_7_);}
</style>
<g id="Warstwa_1">
</g>
<g id="Warstwa_2">
	<linearGradient id="SVGID_1_" gradientUnits="userSpaceOnUse" x1="-0.3913" y1="600.3097" x2="1919.6086" y2="600.3097">
		<stop  offset="0" style="stop-color:#6152AD"/>
		<stop  offset="1" style="stop-color:#5B4CA5"/>
	</linearGradient>
	<path class="st0" d="M-0.4,968.6c257.3,103.8,1152,464.5,1920,0.1V0.6H-0.4V968.6z"/>
	
		<radialGradient id="SVGID_2_" cx="201.1071" cy="201.5535" r="278.5811" fx="-2.2689" fy="11.1707" gradientUnits="userSpaceOnUse">
		<stop  offset="0" style="stop-color:#F4A662"/>
		<stop  offset="1" style="stop-color:#EC6E82"/>
	</radialGradient>
	<path class="st1" d="M-0.4,0.6v402c0.2,0,0.3,0,0.5,0c222.1,0,402.2-179.9,402.5-402H-0.4z"/>
	
		<radialGradient id="SVGID_3_" cx="-86" cy="751" r="0" gradientTransform="matrix(-0.5601 0.8284 -1.5265 -1.0321 1012.2639 1597.3357)" gradientUnits="userSpaceOnUse">
		<stop  offset="0" style="stop-color:#F4A662"/>
		<stop  offset="1" style="stop-color:#EC6E82"/>
	</radialGradient>
	<path class="st2" d="M-86,751"/>
	<g class="st3">
		
			<image style="overflow:visible;opacity:0.58;" width="1998" height="581" xlink:href="A95D99B2.png"  transform="matrix(1 0 0 1 -36 660)">
		</image>
		<g>
			<path class="st4" d="M1920,968.1V745.2c-132.6-60.3-411-7.6-579,45.8c-244.1,77.7-349.7,187.2-510,138
				c-93.4-28.6-82.7-73.5-200-141C444.6,680.7,186.5,661.1,0,769.5V968C257.3,1071.8,1152,1432.5,1920,968.1z"/>
		</g>
	</g>
	
		<radialGradient id="SVGID_4_" cx="1775.3934" cy="902.5365" r="165.3137" gradientTransform="matrix(0.5601 0.8284 -1.5265 1.0321 2158.7666 -1499.7406)" gradientUnits="userSpaceOnUse">
		<stop  offset="0" style="stop-color:#F4A662"/>
		<stop  offset="1" style="stop-color:#EC6E82"/>
	</radialGradient>
	<path class="st5" d="M1920,967.1V720.5c-31.5-6.2-76.2,5.5-149,24.5c-65.4,17.1-135.5,35.4-140,71c-3.8,30.6,45.3,38.4,70,89
		c32.7,67-12.8,136.5-23.4,181.2C1759.2,1054.6,1840.3,1015.3,1920,967.1z"/>
	<g>
		<path class="st6" d="M1398.9,580.8c0,0,8.2-3,13.6,5.4c5.3,8.3,2.4,7.6,5,11.7c2.6,4.2,3.8,16,4.7,22.5
			c9.1,65.4-100.1,70.7-57.5-12.7c4-7.8,7.4-12.5,11-20.9C1379.3,578.4,1394.6,578.8,1398.9,580.8z"/>
		<path class="st7" d="M1375.5,641.9l-11-3.8c0,0-4.4,5.6-5.7,19.6c-1.3,14,0,22.2,0,22.2h12.5L1375.5,641.9z"/>
		<path class="st8" d="M1397.6,634.4c-3.7,0.4-31.5-2.3-33.1,3.7c-8.3,31.8,3.1,75.7,6.1,78.6c2.9,2.9,50.7-6.6,50.7-6.6
			S1428.7,631.2,1397.6,634.4z"/>
		<g>
			<path class="st9" d="M1435.5,601.8c0,0-3.1-1.5-5.9-6.6c-1.8-3.3-7.1-7.6-4.9-8.3c2.2-0.7,5.6,4.9,6.2,3.3
				c0.6-1.6-5.7-13.8-3.7-14.4c2-0.6,7.3,11.2,7.8,9.8c0.6-1.4-5.4-11.8-2.5-12.6c2.8-0.9,5.9,12.7,7.4,12.2
				c1.5-0.5-0.7-10.8,1.6-11.5c2.3-0.7,2,12.8,2.8,12.4c0.4-0.2,2.5-6.8,3.7-6.3c1.4,0.6-2.4,14-0.7,17c1.7,3,15.1,39.8,10.5,44.4
				c-5,5-36.9,16.5-43.6,14.5c-6.7-2-10.5-8.6-8.9-12.6c1.6-4.1,33.2-13.2,33.7-14.5S1435.5,601.8,1435.5,601.8z"/>
			<path class="st10" d="M1438.1,590.2c1,0,1.9,0.2,2.8,0.5c0.1,0.1,3.2,1,4.5,4.3C1443.9,593.3,1442.3,591.4,1438.1,590.2z"/>
		</g>
		<g>
			<g>
				<path class="st9" d="M1004.1,835.2c-0.5-3.8,0.7-10.3,3.6-20.5c-5.9,0-10.8-2.6-16.8-2.5c-1.6,9.6-4.2,25.4-4.2,25.4l-0.3,12.5
					l41.9,0.3c0,0-0.3,0.2-12.7-7.6C1014.7,842.1,1004.6,838.9,1004.1,835.2z"/>
				<path class="st11" d="M986.3,853.2h43.2c1.6-0.1,2-1.4,1.4-2.3c-1.1-1.7-9.6-5.6-15.2-8.3c-9.9,1-27.4-3-29-5.3
					C984,845,985.4,853,986.3,853.2z"/>
			</g>
			<g>
				<path class="st9" d="M952,835.2c-0.5-3.8-1.4-8.5-0.1-21.2c-5.9,0-11.5-1.1-17.5-1c0,9.9,0.2,24.5,0.2,24.5l-0.3,12.5l41.9,0.3
					c0,0-0.3,0.2-12.7-7.6C962.6,842.1,952.5,838.9,952,835.2z"/>
				<path class="st11" d="M934.1,853.2h43.2c1.6-0.1,2-1.4,1.4-2.3c-1.1-1.7-9.6-5.6-15.2-8.3c-9.9,1-27.4-3-29-5.3
					C931.8,845,933.2,853,934.1,853.2z"/>
			</g>
			<path class="st9" d="M982.4,473.8l15.7-16.6c0,0,16.9,9.3,36.5,18.1c5.4-9.4,14.2-40.3,14.7-41.8c0.5-1.5-10.3-20.1-7.9-20.5
				c2.4-0.5,5.6,9.9,8.1,8.9c2.6-1.1,9.1-25.1,10.7-23.8c2.9,2.5-3.5,15-1.9,15.9c1.5,0.9,5.4-13.9,8.3-13.3
				c2.9,0.6-4.9,13.5-4.1,14.7c0.9,1.2,9.1-10.8,10.8-8c0.9,1.5-7.6,10.5-5.8,11.5c1.8,1,9.4-4.6,10.3-2.8s-7.2,3.7-9.4,8.4
				c-2.2,4.6-6.3,6.4-7.7,15.2c-1.3,8.8-5,55.6-14.6,59.3C1037.7,502.2,982.4,473.8,982.4,473.8z"/>
			<path class="st7" d="M992.6,563.4l-12.8,7.1l-26,39.7l46.4,109.2c0,0-5.2,16.4-6.9,24.6c-1.8,8.6-6.2,82.3-6.2,82.3l19.8,0.3
				c0,0,18.8-78.5,22-103.9c3.9-30.9-19.7-104.6-19.7-104.6c-4.4-15-13.9-45.9-13.9-45.9S993.1,564.7,992.6,563.4z"/>
			<path class="st8" d="M948.1,548.5c0,0,1.3,9.3-4,20c-3.2,6.5-8.8,11.6-12.8,19.5c-7.5,15-11.6,36.4-8.8,50.2
				c0,0,15.6,59.5,15,81.2c-0.2,8-3,22.5-4.7,32.2c-1.6,8.6-1,72.7-1,72.7l21,0.4l16.9-105l7.2-93.4l15.6-62.9L948.1,548.5z"/>
			<path class="st12" d="M997.3,409.7c-2-9.6-4.1-19.3-13.7-26.3c-7.8-5.6-16.1-7.2-24.9-4c-25,9.1-11.6,28.9-42.6,50.1
				c-9.7,6.6-13.3,8.9-20.2,17.6c-9.7,12.3-15,28.7-10.1,42.3c10.1,28,41.3,36.1,57.6,30.2c30.4-11.1,55.7-49.6,57.4-60.1
				C1002.5,448.2,998.6,415.9,997.3,409.7z"/>
			<path class="st13" d="M999.6,484.2c7,3.3,19.8,8.1,19.8,8.1l7.3-23c-41-23.3-37.8-19.6-68.6-19.1c-24.6,0.4-34.9-4.3-56.1,52.8
				c0,0,16.1,7.2,21.9,9.6c2.5-7.1,7-21.2,9.6-13.1c4,12.1,6.9,24.4,8.8,37c1.2,7.5,3.9,17.1,2.5,24.7c0,0,16.8,3.5,29.6,4
				c0,0,0.1,0,0.1,0c6.2-0.2,12.5-0.7,18.2-1.9c0,0,2.5-53.1,3.9-55.3c1.5-2.5,7.8-10.4,2.4-22.2
				C997.9,483.8,998.2,483.5,999.6,484.2z"/>
			<path class="st9" d="M961.9,426.7c0,0-2,15.8-3.1,21.3c-1.2,5.7-3,23.9,8.9,26.8c11.9,2.9,8.2-19.7,8.4-25.5
				c0.2-5.8,3.6-26.2,3.6-26.2L961.9,426.7z"/>
			<path class="st14" d="M961.3,431.7c0.1,0.1,0.2,0.2,0.4,0.2c6.6,3.8,12.3,3.2,16.6,0.2c0.8-5.1,1.4-9.2,1.4-9.2l-17.8,3.7
				C961.9,426.7,961.7,428.8,961.3,431.7z"/>
			<path class="st9" d="M965.5,385.4c0,0-7,2-11,8.9c-4,6.9-6,26.9,8.8,35.4c14.8,8.5,25.3-5.1,24.9-17.9
				C987.7,399.1,984.2,382.2,965.5,385.4z"/>
			<path class="st9" d="M991.5,406.4c0.2,3.3-1.3,6.1-3.2,6.2c-1.9,0.1-3.6-2.5-3.8-5.8c-0.2-3.3,1.3-6.1,3.2-6.2
				C989.6,400.5,991.3,403.1,991.5,406.4z"/>
			<path class="st12" d="M967.6,384.9c0,0-8,20.8-15.8,23.1s-7.2,12.5-7.2,12.5s-1-23.7,6.1-29.5
				C957.9,385.1,967.6,384.9,967.6,384.9z"/>
			<path class="st9" d="M955.1,412.1c1.2,3.3,0.4,6.6-1.8,7.4c-2.2,0.8-4.9-1.2-6.1-4.4c-1.2-3.3-0.4-6.6,1.8-7.4
				C951.2,406.8,953.9,408.8,955.1,412.1z"/>
			<path class="st9" d="M968.8,576.3c0.3,0,1.6-0.1,2.7-0.1c1.5,0,2.8,0.3,2.8,0.3s0.6-0.5,1.7-1c0.5-0.2,1.2-0.3,1.7-0.5
				c0.5-0.3,1-0.7,1.5-0.9c1.3-0.6,2.5-0.7,2.9,0c0.3,0.6-6.9,5-6.9,5c-6.7,0-13.8,3.5-29.4-6.7c-8.9-3.9-52.2-25.3-53.1-29.9
				c-0.5-2.6,6.2-22.8,11.6-38.2c4.2,1.9,13.1,5.8,18.1,7.9c-4.6,9.7-10,22.5-9.4,24.1c0.1,0.4,0.7,1.1,29.9,20.3
				c0.7,0.5,1.5,1,2.3,1.5c2.1,1.3,4.3,2.8,6.6,4.3l8.3-0.9c0,0,13.2,0.9,13.6,2.4c0.2,0.7-0.9,1-2.3,1.2h0c-0.2,0-0.4,0.1-0.6,0.1
				c0,0,0,0,0,0c-1.5,0.2-3,0.2-3.4,0.3c-0.4,0.1-1.3,0.5-2,1c8.2,3.4,7.6,2.2,10.3,2c0.7-0.1,1.4,0.1,2.1,0.1
				c1.1-0.1,2-0.8,2.9-0.8c1.3-0.1,2.3,0.5,2.5,0.8c0.3,0.3-0.3,0.7-1.3,1.2c-6.4,2.8-11.6,1.7-13.3,2.1c-1.1,0.3,0.9,0.7,4.2,0.4
				c0.8-0.1,1.9,0.2,2.9,0c0.7-0.2,1.4-0.6,2.1-0.8c0.6-0.2,1.3-0.1,1.8-0.3c0.7-0.1,1.7-0.7,2.3-0.7c2.1-0.2,3.1,0.1,3.4,0.3
				c0.5,0.4-9.1,4.1-9.1,4.1s-6.6,1-8.1,1C968,575.6,967.1,576,968.8,576.3z"/>
		</g>
		<g>
			<path class="st8" d="M532.4,644.3c0,0-4.4,54.6-4.4,59.3c0,4.7,18.8,6.1,18.8,6.1l5.8-56L532.4,644.3z"/>
			<path class="st15" d="M560.4,631c0,0-12.2-6.5-22.3-0.5c-10.1,6-12.8,41.2-12.8,41.2l32.3,3.9L560.4,631z"/>
			<path class="st14" d="M635,810.6c0,0-6.2,25.2-10.8,29.1c-4.6,4-19.6,11.5-15.7,12.3c3.9,0.8,33,1.5,32.2-3.4
				c-0.8-4.8-1.6-7.9-1.6-7.9l7.7-18L635,810.6z"/>
			<path class="st12" d="M606.6,853.1c7.1,0.7,27.8,1.4,33.8,0.7c0,0,1.1-0.2,0.3-5.1c-0.2-1.2-0.4-2.3-0.6-3.2
				c-5.5,1.4-17.4-1.6-22.1-2.2c-5.1,2.5-10.9,6.1-12.8,6.4C602.6,850.1,602.6,852.7,606.6,853.1z"/>
			<path class="st14" d="M702.8,831.7c0,0,0.6,6.4,0.6,9.2c0,2.8-2.6,10.7-1.4,11.9c1.2,1.2,35.8,1.1,35.8-0.1c0-1.1-6.1-4.6-14.4-7
				c-8.3-2.4-11.1-11.6-9-16.9L702.8,831.7z"/>
			<path class="st12" d="M738.4,852.9c0-1.1-5.7-4.3-13-6.6c-7.8,2.6-18.7,0.5-22.8-0.3c-1.2,3.3-1.6,6.4-1,7
				C702.8,854.2,738.4,854,738.4,852.9z"/>
			<path class="st15" d="M665.2,725.3l-6.2,5.5c0,0-7,18.9-7.4,20.2c-0.6,1.7-23.2,74.7-23.2,74.7l15.8,5.7c0,0,15.6-30.5,18.2-41
				c2.6-10.6,28.5-54.8,28.5-54.8L665.2,725.3z"/>
			<path class="st15" d="M692.6,736.5l7.6,96.7h17.5c0,0,6.3-72.3,4.1-97.8L692.6,736.5z"/>
			<path class="st9" d="M598.9,669.2c0,0,5.3,26,10,30.6c2.7,2.7,9.9,13.4,15.5,13.4c4.4,0,7.1,0.3,7.8,0.3c1.7,0-0.2,10.6-1.8,12.2
				c0,0-0.5,1.6-3.8,1.6s-20.4-11.8-25.6-16.9c-5.2-5.2-14.8-33.5-14.8-33.5L598.9,669.2z"/>
			<path class="st14" d="M684.2,636.6c0,0-6.7,7.8-15.5,20.9c-8.9,13.2-31.5,49.7-33.9,52.2c-0.6,0.6-2.4,1.8-2.4,1.8
				s-3.2-0.7-4.9-0.1c-1.7,0.6-3.9,3.9-3.1,4.6c0.8,0.8,3.8-1.9,4.8-1.8c0.9,0,1,0,1,0.5c0,0.5-3.8,2.6-4.9,2.9
				c-1.1,0.3-3.9,4.7-3.4,6.1c0.5,1.5,0.5,1.9,1.9,1.9c1.4,0,1.6,1.1,2.7,1.1c1.2,0,1.4-1.4,2.7-0.9c1.3,0.6,1.7,0.4,5.7-2
				c4-2.4,11.6-11.6,15.3-15.3c3.8-3.8,38.3-41.4,38.3-41.4L684.2,636.6z"/>
			<path class="st16" d="M698.9,578.7c0,0-8.2-3-13.6,5.4c-5.3,8.3-2.4,7.6-5,11.7c-2.6,4.2-9.4,3.3-9.4,9.8c0,6.5,3,7.5,3,7.5
				s-2.7,5,0.3,10.2c3,5.2,10.6,9.6,16.9,8.9c0,0,9.5,5.2,19,2.7c9.5-2.5,6.2-2.5,10.1-2.5c3.9,0,14.4-5.3,12.7-13.1
				c0,0,6.4-7.6,0.2-13.8c-6.2-6.2-7.4-12.5-11-20.9C718.4,576.3,703.2,576.7,698.9,578.7z"/>
			<path class="st13" d="M581.7,633.6c1.2,0.4,6.2,4,9.1,9.6c2.9,5.6,10.6,29.1,10.6,29.1l-12.7,4.6L581.7,633.6z"/>
			<path class="st9" d="M517.9,827.1c0,0-2.1,7.4-3.7,9.1c-1.7,1.7-7.1,8.1-5.8,11.3c1.3,3.2,34.8,7.7,36.1,6.5
				c1.3-1.3-5.8-6.6-9.8-9.9c-4-3.3-6.9-7.3-5.2-12.3c1.7-4.9,1.7-4.4,1.7-4.9C531.2,826.3,517.9,827.1,517.9,827.1z"/>
			<path class="st7" d="M544.4,853.9c1.5-1.1-3.2-6.2-10-10.1c-2.8,0-6.7-0.2-9.9-1c-5-1.3-8.9-5.6-10.1-7c-0.1,0.1-8.2,8-6.6,11.7
				C509.2,850.6,541.4,856.1,544.4,853.9z"/>
			<path class="st9" d="M573.4,830.7c0,0,0.6,7.6-0.6,9.6c-1.3,2-5.6,9.8-3.2,12.3c2.2,2.2,32.8,0.8,33.8-0.7c1-1.5-4.3-6-8.9-8.4
				c-4.6-2.3-8.3-5.7-7.7-10.8c0.6-5.2,0.7-4.7,0.6-5.2C587.2,826.9,573.4,830.7,573.4,830.7z"/>
			<path class="st7" d="M607.2,853c1.6-1-5.5-7.4-13-9.7c-2.8,0.6-6.5,1.3-9.9,1.2c-5.2-0.1-9.9-3.5-11.3-4.7
				c-0.1,0.2-7,10.3-3.9,12.8C571.5,854.6,604.7,854.5,607.2,853z"/>
			<path class="st14" d="M575.6,722.9l-19.8,57.3l-22.7,53l-19-4.8c0,0,6.9-36.8,13.3-48.3c4.9-8.7,8.3-58.9,8.3-58.9L575.6,722.9z"
				/>
			<path class="st6" d="M566.1,732.5l6.9,100.7h16.2c0,0,7.1-105.5,4.5-115.5c-2.6-10-29.6-7.8-29.6-7.8L566.1,732.5z"/>
			<path class="st17" d="M581.7,633.6c0,0-20.9-6.3-24.1-5.8c-3.5,0.4-12.1,5-12.1,5s0.5,36.2-1,46.5c-1.5,10.2-12.1,43.1-12.1,43.1
				s14.9,8.6,39.9,5.8c25-2.8,23.3-8.9,23.3-8.9S593.3,683,591,667C588.6,651,581.7,633.6,581.7,633.6z"/>
			<path class="st9" d="M723.3,639.2c0,0-11.1-2.9-23.8-3.6c-6.5-0.4-15.3,1-15.3,1s-8,17.9-10.4,32.6
				c-2.4,14.7-15.3,61.7-15.3,61.7s26.3,20.3,64.8,6.9V639.2z"/>
			<path class="st14" d="M693.4,623.1c0,0,0.3,11.5-0.7,12.5c-1.1,1.1-2.6,2.9-1,5.6c1.6,2.7,8.5,1,11.7-0.6
				c3.1-1.5,5.1-4.3,5.1-4.3l-1.6-18.2L693.4,623.1z"/>
			<path class="st6" d="M697.9,627.9c2.2-0.8,6.1-2.3,9-7.1l-0.2-2.5l-13.4,4.9c0,0,0.1,2.8,0,5.8
				C695.3,628.8,696.9,628.2,697.9,627.9z"/>
			<path class="st18" d="M512.6,582.8c0,0-1.1,5.1,4.2,6.9c5.3,1.8,8.6-16.9,11.6-20.6c3-3.7,12.2-4.7,17,2.7
				c2.6,4.1,3.4,5.8,3.6,6.6c0.2,0.6-0.1,0.6-0.1,0.6l-1.4,2.7c0,0-4.6-2.8-6.4,2.3c-1.7,5.1,3.4,13.5-1,20.4
				c-4.4,6.9-12.5,2-12.5,2c-6.7,4.5-14.4-2.4-16.9-8.9C508.4,591,512.6,582.8,512.6,582.8z"/>
			<path class="st9" d="M565,608.7l-0.7,7.5l-6.7,11.6c0,0,13.3,16.1,17.4,12.2c0.9-0.9,3.2-17.8,3.2-17.8L565,608.7z"/>
			<path class="st10" d="M564.3,616.2l-1.4,2.6c4.1,3.7,9.4,7,14.5,9c0.5-3.1,0.8-5.6,0.8-5.6L565,608.7L564.3,616.2z"/>
			<path class="st9" d="M578.7,584c0,0,3.5,3.2,4.8,5c7.7,10.7,1.5,31.7-2.5,33.5c-6.1,2.7-13.9-0.9-22.8-6.9
				c-8.9-6-11.7-15.8-3.6-24.3C562.7,582.8,578.7,584,578.7,584z"/>
			<path class="st18" d="M549.2,582.1l2.4-2.3c9.5,0,17.1-5.7,27.7,0c7,3.8,4.1,9.1,4.1,9.1c-26,0-16.6,20.5-19.8,28.7
				C560.5,625.8,540.5,608.2,549.2,582.1z"/>
			<path class="st9" d="M567.4,605.2c0,0-0.4-6.7-4.5-5.4c-4.1,1.3-0.9,11.5,2.5,11.1C568.9,610.6,567.4,605.2,567.4,605.2z"/>
			<path class="st14" d="M709.1,605.3c0,0,0.3-6.7,4.5-5.4c4.1,1.3,1,11.5-2.4,11.1C707.7,610.6,709.1,605.3,709.1,605.3z"/>
			<path class="st13" d="M548.5,577c0,0,3.9,2.4,5.5,2.2c1.6-0.2-2.4,4.9-4.5,5.5c-2.1,0.5-1.4-1.5-1.8-2.2
				c-0.4-0.7-2.1-0.2-2.5-0.7C544.3,580.7,546.7,577.3,548.5,577z"/>
			<path class="st9" d="M621.7,725.3c0,0,3.6-5.6,4.8-5.9c1.2-0.3-0.3,3.8-0.3,4.6c0,0.8,2.2-5.8,3.3-5.8c1.2,0,1.3,0.9,0.9,2.5
				c-0.5,1.7-1.6,3.8-1.1,3.8c0.5,0,2.1-7.3,3-6.4c0.9,0.9,0.5,6.8-1.1,8.5C629.5,728.4,624.6,727.4,621.7,725.3z"/>
			<path class="st18" d="M686.3,681.8c1.5,0.8,3.3-0.2,4.1-1.6c1-2,0.4-4-1.1-4.7c-1.5-0.7-3.3,0-4.2,1.8
				C684.1,679.1,684.7,681.2,686.3,681.8z M676.1,669.4c0.6-0.6,2.4-3.2,5.4-2.2c2.6,0.9,3.6,3.5,4.4,4.8c-0.2-1.2-0.7-3.3-0.1-5.7
				c1.5-6.4,9.3-5.8,9.2,0.1c-0.1,2.3-0.9,3.7-2.1,6.2c0.5-0.5,1.9-2.3,3.9-3.3c5.7-3,8.8,4.2,4.8,8.1c-2.1,2-4.8,2-6.4,2.2
				c1.4,0.4,2.3,0.5,3.6,1.4c7.2,4.5-2.8,16.8-8.2,5c0,0,0,0-0.1,0c0.2,1.7,0.7,3.7,0,6.1c-1.9,6.4-10.4,5.3-8.9-2
				c0.5-2.3,2-4.7,2.1-4.9c-1,1.1-2.5,2.9-4.7,3.8c-5.6,2.2-8.3-5.8-3.1-9.1c2.3-1.5,4.6-1.3,5.5-1.5c-1.9-0.5-3.7-1-5.1-2.6
				c-1.8-2.2-0.8-4.3-0.9-4.6C675.6,670.6,675.9,670,676.1,669.4z"/>
			<path class="st14" d="M696.1,583.2c0,0-6.5-0.1-9.8,4.9c-3.3,5-6.9,19.4-1.4,29.4c5.5,9.9,12.5,7.5,15.3,6.5
				c2.9-1,8.6-3.2,11.4-12.5C714.5,602.2,712.4,581.3,696.1,583.2z"/>
			<path class="st8" d="M548.9,631.1c0,0,4.7-0.7,8.7,14.5c4.6,17.3-0.4,35.2-7.9,39.7c-7.5,4.5-10.7,3.7-10.7,3.7l1.2,10.6
				c0,0,22.3-5,25.3-24.1c5-31.2-9.7-47.3-9.7-47.3s-2.8,0.4-3.6,0.8C551.3,629.4,548.9,631.1,548.9,631.1z"/>
			<path class="st9" d="M537.3,667.2c0,0,0,18.4,0,22.3c0,3.9,4.5,30.2,9.9,39.2c5.5,9,12.9,19.1,14.4,19.6c1.5,0.6,4.9,2.7,6.6,1
				c1.7-1.7,3.1-0.9,5.3-1.9c2.2-0.9-0.3-4-3.3-7.1c-3-3-3.7-3.7-3.2-4.2c0.5-0.5,3,2.3,4.2,1.9c1.3-0.4-0.8-5-4.2-6.5
				c-3.4-1.6-8.8-4.7-9.3-6.3c-0.5-1.7-0.5-1.2-0.5-1.7c0-0.4-3.8-26.6-3.8-31.7c0-5.1-1.5-21.7-1.5-21.7L537.3,667.2z"/>
			<path class="st13" d="M547.5,631.9c-2,0.2-7.3,2.2-9.2,8.5c-1.9,6.3-6.8,24.3-5.9,33.1c0,0,21,2.7,21,1.9
				c0-0.9,4.6-23.4,2.3-33.2C553.8,633.5,551,631.4,547.5,631.9z"/>
			<path class="st8" d="M578.4,632.7l14.6,52.5v0c-0.6-6.9-1.4-13.4-2.1-18.2c-2.4-16-9.3-33.4-9.3-33.4S580.4,633.2,578.4,632.7z"
				/>
			<g>
				<polygon class="st11" points="663.6,738.5 704,738.5 704,683 663.6,685.2 				"/>
				<g>
					<path class="st11" d="M663.6,680.8h38.6c1,0,1.8,1,1.8,2.2l0,0c0,1.2-0.8,2.2-1.8,2.2h-38.6l0,0
						C666.3,683.9,666.3,682,663.6,680.8z"/>
					<path class="st19" d="M664.7,681.5h36.2c0.7,0,1.3,0.7,1.3,1.5l0,0c0,0.8-0.6,1.5-1.3,1.5h-36.2
						C665.9,683.6,665.9,682.4,664.7,681.5z"/>
				</g>
			</g>
			<path class="st14" d="M723.3,639.2c0,0-3,3-6.3,14.5c-3.2,11.5-4.9,38.4-7.7,41.2c-2.8,2.8-21.2,17.4-24.5,16.9
				c-3.3-0.5-10.7-9.1-13-9.1c-2.3,0-2,2.1-0.9,3.2c1.2,1.2,2.6,2.5,1.9,3.2c-0.7,0.7-0.7,0.7-0.7,0.7s-10.3-2.7-12-1.7
				c-1.7,1,1.7,3.4,1.7,5.1c0,1.7-0.4,1.7-0.2,3.6s0.7,3.4,1.6,4.3c0.9,0.9,12.2,4.2,23.3,2.7c11.1-1.5,24.6-6.8,34.6-19.2
				c10-12.4,8-51.3,7.8-55.2C728.3,639.6,723.3,639.2,723.3,639.2z"/>
		</g>
		<polygon class="st13" points="1276.6,428.2 1285,426.5 1287.1,418 1296.6,416.8 1296,407.1 1306.8,405.2 1307.3,396.2 
			1317.4,392.8 1318.7,396.6 1311.2,399.1 1310.6,408.7 1300.3,410.4 1300.9,420.3 1290.4,421.7 1288.4,430 1280.6,431.5 
			1280.4,437.2 1276.4,437.1 		"/>
		<path class="st14" d="M1228.7,498.1l5-9.2l-4.7-9.3c-0.5-1.1,0.4-2.3,1.5-2.1l10.3,1.9l7.4-7.4c0.8-0.8,2.3-0.3,2.4,0.8l1.3,10.4
			l9.3,4.8c1.1,0.5,1,2.1,0,2.6l-9.5,4.5l-1.7,10.3c-0.2,1.2-1.6,1.6-2.5,0.8l-7.2-7.6l-10.3,1.6
			C1229,500.4,1228.1,499.2,1228.7,498.1z"/>
		<path class="st18" d="M553.6,468.8l6.2-8.4l-3.5-9.9c-0.4-1.1,0.7-2.2,1.8-1.8l9.9,3.2l8.3-6.3c0.9-0.7,2.3,0,2.3,1.1l0,10.5
			l8.6,5.9c1,0.7,0.8,2.2-0.4,2.6l-10,3.2l-3,10c-0.3,1.1-1.8,1.4-2.5,0.4l-6.1-8.5l-10.5,0.2C553.6,471.2,552.8,469.8,553.6,468.8z
			"/>
		<g>
			<path class="st18" d="M749.4,403c-0.4-5.8,4-10.8,9.8-11.2c5.8-0.4,10.8,4,11.2,9.8c0.4,5.8-4,10.8-9.8,11.2
				C754.8,413.1,749.8,408.8,749.4,403z"/>
			<g>
				<path class="st18" d="M767.2,432.7c-0.6-3.1-1-6.3-2.1-9.3c-0.9-2.5-4.8-1.8-4.6,1c0.2,3.3,1.3,6.7,2,10c0.3,1.3,2,1.9,3.2,1.5
					C767.1,435.4,767.5,434,767.2,432.7L767.2,432.7z"/>
			</g>
			<g>
				<path class="st18" d="M785.3,419.7c-3.5-2.1-6.5-4.6-9.8-7c-2.5-1.9-5.2,1.4-3.2,3.6c3,3.2,6.9,5.8,10.6,8
					c1.2,0.7,2.8,0,3.4-1.2C787.1,421.8,786.5,420.4,785.3,419.7L785.3,419.7z"/>
			</g>
			<g>
				<path class="st18" d="M778.7,400.8c-0.8,0.6-0.9,1.5-0.5,2.4c1.2,2.1,4.2,2,6.3,2c2.2-0.1,4.4-0.5,6.5-1.2
					c3.1-1.1,1.4-5.9-1.7-4.8C783.3,401.2,780.9,399,778.7,400.8z"/>
			</g>
			<g>
				<path class="st18" d="M775.3,380.3c-3.1,4.5-5.6,6-5.2,8.5c0.2,1.4,1.4,2.1,2.8,1.8c1.6-0.4,2.5-2.1,3.5-3.3
					c0.9-1.2,1.9-2.4,2.7-3.6c0.8-1.1,0.9-2.6-0.2-3.6C777.9,379.3,776.1,379.2,775.3,380.3L775.3,380.3z"/>
			</g>
			<g>
				<path class="st18" d="M763.4,379.6c-1-2.7-1.2-3.7-2.5-5c-1.1-1.1-3.4-0.4-3.6,1.2c-0.2,1.9,0.2,2.6,1.2,5.4
					c0.5,1.3,1.9,2,3.3,1.6C763.1,382.4,763.8,380.9,763.4,379.6L763.4,379.6z"/>
			</g>
			<g>
				<path class="st18" d="M750.5,386.1c-4.4-3.4-5.3-4.3-7.1-4.1c-1,0.1-2.2,1.1-1.9,2.2c0.4,2.1,1.6,2.7,5.7,5.7
					c1.1,0.8,2.6,0.8,3.5-0.2C751.6,388.7,751.5,387,750.5,386.1L750.5,386.1z"/>
			</g>
			<g>
				<path class="st18" d="M732.7,401.5c-1.7,0.9-1,3.9,0.8,4.2c1.8,0.2,2.5-0.1,11.3-1.7c1.4-0.2,2.5-1.2,2.4-2.7
					c-0.1-1.3-1.4-2.6-2.7-2.4C735.4,400.6,734.5,400.6,732.7,401.5z"/>
			</g>
			<g>
				<path class="st18" d="M746.5,415.9c-4.8,4.7-5.5,3.8-7.4,6.7c-0.9,1.3,0.6,3.4,2.1,3.1c1.9-0.4,2.5-0.7,5-2.7
					c1.5-1.2,2.9-2.4,4.2-3.7c1-1,0.7-2.8-0.3-3.6C749,414.6,747.5,414.9,746.5,415.9L746.5,415.9z"/>
			</g>
		</g>
		<polygon class="st15" points="667.1,405.3 675.5,399.8 672.2,393.1 680.3,387.4 678.1,380.4 683.6,375.3 681.4,373.2 674.1,380.1 
			676.2,386.6 667.8,392.6 671,399.2 663.4,404.2 		"/>
		<polygon class="st18" points="1334.4,457.6 1324.6,455.3 1322,462.3 1312.3,460.4 1308.8,466.7 1301.3,466.3 1301.3,469.3 
			1311.3,469.9 1314.6,463.9 1324.7,465.9 1327.3,459 1336.1,461.1 		"/>
		<g>
			<path class="st10" d="M655.1,460.5c0,0,3.1-3.4,8.4-2.9c4.8,0.5,7.7,4.6,7.3,9c-0.5,5.1-5.6,10.7-17.7,14.9
				c-11.1-6.4-15-12.9-14.5-18c0.4-4.4,4.1-7.9,8.9-7.4C652.7,456.5,655.1,460.5,655.1,460.5z"/>
			<g>
				<path class="st10" d="M615.4,458.7c4.6,1.2,8.3,1.9,12,2.5c1.2,0.2,3.3,0.9,4.3-0.1c0.5-0.5,0.7-1.1,0.3-1.8
					c-0.7-1.1-2.6-1-3.9-1.2c-3.7-0.6-8-1.4-12.2-2.4c-0.8-0.2-1.6,0.5-1.7,1.2C614.1,457.8,614.6,458.5,615.4,458.7L615.4,458.7z"
					/>
			</g>
			<g>
				<path class="st10" d="M676.6,477.6c1.8,0.3,3.6,0.6,5.4,0.8c1.7,0.3,3.7,0.9,5.4,0.5c1.3-0.3,1.6-1.8,0.4-2.5
					c-1.5-0.8-3.6-0.8-5.3-1.1c-1.8-0.3-3.6-0.5-5.4-0.8C675.1,474.4,674.6,477.3,676.6,477.6L676.6,477.6z"/>
			</g>
			<g>
				<path class="st10" d="M628.4,484.6c2.8-3.4,5.7-4.2,8-5.3c1.2-0.6,0.9-2.4-0.5-2.3c-3.8,0-7.5,2.9-9.8,5.8
					C624.9,484.2,627.2,486.1,628.4,484.6L628.4,484.6z"/>
			</g>
			<g>
				<path class="st10" d="M647.7,497.2c0.2-1.9,0.8-3.6,1.7-5.3c0.6-1,3.2-3.6,1.1-4.5c-1.9-0.8-3.5,2.3-4.1,3.6
					c-0.9,1.7-1.5,3.7-1.7,5.6C644.5,498.6,647.4,499.2,647.7,497.2L647.7,497.2z"/>
			</g>
			<g>
				<path class="st10" d="M664.6,488.2c0.9,0.9,1.8,1.7,2.7,2.6c0.9,0.9,1.7,2.1,3,2c0.8,0,1.2-0.7,1.2-1.4c0-1.2-1.4-2.2-2.3-3
					c-0.9-0.9-1.8-1.7-2.7-2.6c-0.6-0.6-1.7-0.4-2.2,0.2C663.8,486.8,664,487.7,664.6,488.2L664.6,488.2z"/>
			</g>
			<g>
				<path class="st10" d="M644.4,447.6c-2.4-9.7-2.3-9.8-3-10.6c-0.7-0.9-2.2-0.6-2.4,0.6c-0.2,1.1-0.1,0.9,2.4,11.2
					c0.2,0.8,1.3,1.2,2,0.9C644.4,449.3,644.6,448.4,644.4,447.6L644.4,447.6z"/>
			</g>
			<g>
				<path class="st10" d="M660.8,450c0.8-1.4,1.5-2.9,2-4.5c0.5-1.5,1.4-3.6,0.2-4.9c-0.3-0.3-0.8-0.3-1.2-0.2
					c-1.4,0.7-1.5,2.8-1.9,4.1c-0.5,1.5-1.1,2.9-1.8,4.3c-0.4,0.7,0,1.7,0.7,2C659.6,451.1,660.4,450.7,660.8,450L660.8,450z"/>
			</g>
			<g>
				<path class="st10" d="M683.6,455c0.4-0.7-0.1-1.4-0.7-1.7c-1.2-0.7-3,0.3-4.1,0.7c-1.3,0.5-2.6,1.2-3.8,1.9
					c-0.7,0.4-0.8,1.5-0.3,2.1c0.5,0.7,1.4,0.7,2.1,0.3C681.6,455.8,682.7,456.6,683.6,455z"/>
			</g>
		</g>
		<polygon class="st18" points="808.3,461.4 802.1,475.6 786.3,475.3 786.3,471.2 799.4,471.4 805.8,456.7 823.4,459.9 826.5,449.7 
			830.4,451.2 826.4,464.7 		"/>
		<path class="st15" d="M894.6,358c-1.1,8.6,7.8,15.4,15.8,14.8c8.8-0.6,16.2-7.8,17.5-16.4c1.4-9.3-4.2-16.8-12.9-17.5
			c-8.4-0.7-13.9,6.9-11.4,14.4c1.7,5.4,6.7,7.5,9.2,6c1.9-1.2,1.8-4.1-0.5-4.6c-0.9-0.2-1.9,0.3-2.4,1c-2.1-0.8-4-4.6-2.7-8.6
			c1.7-5.2,8.3-5.5,12.3-3.1c5.2,3.1,6,9.7,4.1,15c-2,5.5-7.4,9.9-13.4,10.3c-6.7,0.5-12.6-4.7-13.2-11.4
			C896.9,356.4,894.8,356.4,894.6,358z"/>
		<path class="st15" d="M1190,445.2c-0.8-8.6-11-13.3-18.7-11c-8.4,2.5-14.1,11.2-13.4,19.9c0.7,9.4,7.8,15.4,16.4,14.2
			c8.4-1.2,12-9.7,7.9-16.6c-2.9-4.9-8.2-5.8-10.3-3.8c-1.6,1.6-0.9,4.4,1.5,4.4c1,0,1.8-0.7,2.1-1.6c2.2,0.3,4.9,3.6,4.5,7.8
			c-0.5,5.4-6.8,7.2-11.4,5.7c-5.7-1.9-8-8.1-7.3-13.7c0.7-5.9,5.1-11.3,10.8-13c6.4-2,13.4,1.8,15.4,8.2
			C1188.1,447.2,1190.1,446.7,1190,445.2z"/>
		<g>
			<path class="st9" d="M1242.1,829c0,0,0.9,8.1,0.9,9.4c0,1.4,0,1.4,0,1.4l-0.7,1.4l-0.3,0.6l4.8,6.8c0,0,19.4,0.3,19.8,0.3
				c0.4,0-2.6-4.7-2.6-4.7s-6.4-4.8-7.6-8.2c-1.2-3.4,1-10.4,1-10.4L1242.1,829z"/>
			<path class="st9" d="M1148.8,780.8c0,0-6.9,4.3-8,5.1c-1.1,0.8-1.1,0.8-1.1,0.8l-0.7,1.4l-0.3,0.6l-8.3,0.4
				c0,0-12.3-15-12.5-15.3c-0.3-0.3,3.5,0.5,3.5,0.5s7.7,1,11.1-0.2c3.4-1.2,10.2-7.9,10.2-7.9L1148.8,780.8z"/>
			<path class="st13" d="M1211.4,705.2l-74.3,63.3l11.4,16.2c0,0,76.3-47.4,80.3-47.9c4-0.5,7.2,1.3,8,4.2
				c0.8,2.9,2.7,90.4,2.7,90.4h19.8l10.3-110.1L1211.4,705.2z"/>
			<g>
				<path class="st9" d="M1318.4,614.9c5.5-3.6,18.4-17.5,22.8-22.2c0-0.6,0.5-3.8,4-7.8c2.5-2.9,4.4-9.4,6-7.6
					c1.6,1.9-2.4,7.1-0.6,7.1c1.9,0,11-10.3,12.5-8.6c1.5,1.7-7.9,10.9-6.2,10.9c1.7,0,9.2-9.3,11.3-6.9c2.1,2.4-9.9,10.1-8.8,11.4
					c1.1,1.3,8.6-3.8,10.2-1.9c1.7,1.9-10.5,6.4-9.5,6.5c1,0,8-0.2,8.1,1.2c0.1,1.5-17.8,3.9-20,6.6l0,0c-4.7,7.4-13,21-21.4,26.9
					c-10.3,7.3-34,22.7-34,22.7l-11.8-15.2C1281.1,638,1311.9,619.2,1318.4,614.9z"/>
				<path class="st10" d="M1350.6,587.8c0.5,0.9,0.7,1.9,0.7,2.9c0,0.2,0.4,3.3-2.3,5.8C1350.1,594.4,1351.2,592.2,1350.6,587.8z"/>
			</g>
			<g>
				<path class="st9" d="M1209.5,598.3c-4.4-4.9-13.2-21.7-16.2-27.4c0.1-0.5,0.5-3.7-1.8-8.6c-1.6-3.4-1.7-10.3-3.8-8.9
					c-2.1,1.4,0.5,7.5-1.3,7c-1.8-0.5-8-12.8-9.8-11.6c-1.9,1.2,4.7,12.5,3.1,12.1c-1.6-0.4-6.5-11.4-9.1-9.6
					c-2.6,1.8,6.9,12.4,5.5,13.3c-1.4,0.9-7.3-5.9-9.4-4.5c-2.1,1.4,8.4,9,7.5,8.7c-0.9-0.2-7.7-2.3-8.1-1
					c-0.5,1.5,16.1,8.4,17.5,11.5l0,0c2.6,8.4,7,23.6,13.6,31.6c8,9.7,26.9,30.8,26.9,30.8l15.4-11.6
					C1239.6,630.3,1214.7,604.1,1209.5,598.3z"/>
				<path class="st10" d="M1185.6,563.6c-0.7,0.8-1.1,1.6-1.4,2.6c0,0.2-1.3,3.1,0.7,6.2C1184.4,570.2,1183.8,567.8,1185.6,563.6z"
					/>
			</g>
			<path class="st7" d="M1242.4,633L1242.4,633c2.2-3.3,6.1-5.2,10.1-5c11.8,0.8,35.7,2.7,38,5c3,3,12.1,22.7,3.5,50.4
				c-8.6,27.6-13.4,24.8-20.4,24.8s-40.3-15.7-40.3-15.7L1242.4,633z"/>
			<path class="st18" d="M1222,609.5l-13.9,18.1l17.2,25.6c0,0-1.6,19-4.1,25c-2.5,5.9-16.8,30.3-16.8,30.3s34.9,21.4,69,18.2
				c0,0,9.6-49.4,12.3-54.2c2.7-4.8,28.7-28.3,28.7-28.3l-12.6-20.4L1280,636c0,0-39.9-6.4-41.8-8.4
				C1236.3,625.7,1222,609.5,1222,609.5z"/>
			<path class="st14" d="M1267,572.5c0,0-13.5-7.1-18.1,4.7c0,0-12.1-1.2-10,11.3c0,0-12.2,6.1-4.5,21.9c0,0-3.4,14.8,14,15.8
				c0,0,2.6,5.3,10.5,4c7.9-1.2,9.9-3.3,9.9-3.3s14,4.1,18.3-8.6c0,0,9.6-2.3,3.2-14.7c0,0,8.4-16-6.4-20.9
				C1283.9,582.8,1282.2,566.3,1267,572.5z"/>
			<path class="st9" d="M1272.4,607.3c-1.1,3.1-0.3,6.1,1.8,6.9c2.1,0.7,4.6-1.1,5.7-4.2c1.1-3.1,0.3-6.1-1.8-6.9
				C1276.1,602.4,1273.5,604.2,1272.4,607.3z"/>
			<path class="st9" d="M1236.1,599.8c-0.2,3.2,1.5,5.9,3.7,6.1c2.2,0.1,4.1-2.4,4.2-5.7c0.2-3.2-1.5-5.9-3.7-6.1
				C1238.2,594,1236.3,596.6,1236.1,599.8z"/>
			<path class="st9" d="M1251.5,621.3c0,0.2-1.7,7.7-2.7,11.7c-0.3,1.5,0.4,3,1.8,3.6c3.7,1.7,11,4,16-0.5c0.5-0.4,0.7-1,0.7-1.6
				l-0.6-17.9L1251.5,621.3z"/>
			<path class="st10" d="M1250.6,625.5c3.9,2,8.8,2,14.4-1.2c0.7-0.4,1.4-0.8,2-1.3l-0.2-6.4l-15.2,4.7
				C1251.5,621.4,1251.1,623.2,1250.6,625.5z"/>
			<path class="st9" d="M1262.3,579.8c0,0,6.6,1.8,10.5,8.2c3.9,6.4,6,25.1-7.9,33.2c-13.9,8.2-24-4.5-23.8-16.4
				C1241.4,592.9,1246.7,577.7,1262.3,579.8z"/>
			<path class="st8" d="M1239.6,628.2c-6.4,4.8-13.1,29.7-15.6,36.1l-2,11.9l26.1-46C1248,630.2,1241,627.2,1239.6,628.2z"/>
			<path class="st8" d="M1271.2,634.5c0,0-0.8,30.6,1.5,41.1c2.3,10.5,8.3,14.2,8.3,14.2l3-12.2c0,0-3-27-4.1-41.6
				C1279.8,633.8,1271.2,634.5,1271.2,634.5z"/>
			<path class="st12" d="M1238.6,853.5c-3-0.4,2.2-10.6,3.8-12.3l21.8,2.9c0,0,10.5,4.9,13,7.3c0.6,0.6,0.7,1.6-1.9,2
				C1267,854.7,1245.1,854.3,1238.6,853.5z"/>
			<path class="st12" d="M1131.6,798.9c2.6,1.5,7.2-8.4,7.5-10.8l-17.6-13.8c0,0-13.6-3.9-16.3-1.2
				C1102.7,775.7,1125.8,795.4,1131.6,798.9z"/>
		</g>
		<polygon class="st17" points="869.9,394.5 857.2,410.8 884.4,415.6 		"/>
		<g>
			<polygon class="st8" points="1036.3,317 1067.6,360 1088.3,337.3 			"/>
			<polygon class="st20" points="1091.1,325.4 1088.3,337.3 1036.3,317 			"/>
			<polygon class="st20" points="1088.3,341.8 1036.3,317 1084.6,360 			"/>
			<path class="st18" d="M1119.9,393.3c-0.4,0-9.5-1-21.1-8.2c-11.6-7.2-16-19.9-16-21.9c0-0.8,0.6-1.4,1.4-1.4
				c0.8,0,1.4,0.6,1.4,1.4c0.1,1.4,3.8,12.8,14.7,19.6c11,6.8,19.8,7.8,19.9,7.8c0.8,0.1,1.3,0.8,1.3,1.5
				C1121.3,392.8,1120.7,393.4,1119.9,393.3z M1085.6,363.2C1085.6,363.2,1085.6,363.2,1085.6,363.2
				C1085.6,363.2,1085.6,363.2,1085.6,363.2z"/>
			<path class="st18" d="M1176.8,406c-16.2-3.3-31.7-9.2-46.1-17.8c-11.8-7-21.4-17.8-33.5-23.8c-0.7-0.3-1-1.2-0.6-1.9
				c0.3-0.7,1.2-1,1.9-0.6c12.5,6.2,22,16.9,33.7,23.9c14.1,8.4,29.3,14.3,45.2,17.5c5.8,1.2,12.8,1.6,20.6,1.3
				c0.8,0,1.4,0.6,1.5,1.3c0,0.8-0.6,1.4-1.3,1.5C1191.1,407.6,1183.6,407.4,1176.8,406z"/>
		</g>
		<g>
			<path class="st10" d="M797.5,633.3c0.7,0,6,8.5,9.3,21.6c3.3,13.1,10.4,37.3,10.4,37.3s11.4,23.1,14.5,26.2
				c3.1,3.1,6.1-0.1,9.2,0.9c1,0.3,3.9,2.9,3.9,2.9s5.4,11.6,4.6,12.4c-0.8,0.8-9.1,3-14.8,1.2c-5.8-1.9-32.5-33.2-32.5-33.2
				S780.3,634.5,797.5,633.3z"/>
			<path class="st21" d="M902.1,643.7l-2.6-2.7c0,0-4.7,8.5-10.2,20.6c-5.5,12.1-12,27-14.2,29.2c-2.2,2.2-21,28.1-26.7,30.6
				c-5.7,2.5-3.9,1.4-8.5,0.9c-3.4-0.4-3.1,2.1-0.8,3.2c0.6,0.3,1.3,0.5,2.7,1.5c2.7,1.9,5,4.7,6.7,6.3c0.7,0.6-0.7,1.7-1.5,1
				c-0.8-0.8-3.5-5-4.6-5c-1.1,0-0.4,2.9,0.1,3.8c0.5,0.9-0.6,0.6-1.6-1.6c-1-2.3-1.7-4.5-3.1-4.2c-1.1,0.3-0.4,3.4-0.1,4.6
				c-0.3-1.1-1.2-4-2.1-4c-1.1,0-1.6,0.1-1.6,2.2s0.8,4.4,3.2,6.3c2.5,1.9,9.4,0.6,12.3-0.5c2-0.8,3.9-3.9,5.8-5
				c8.7-4.7,17.7-10.3,28.8-25.2c13.6-18.1,18.9-34.3,18.9-34.3L902.1,643.7z"/>
			<path class="st21" d="M897.1,849.5c0,0-1.4-6,0-13.4c1.4-7.3,9.2-44.8,9.2-52.5c0-7.8,3.7-19.1,3.7-19.1l-22.9-5.8l-2.3,22.3
				c0,0-1.2,52-3.3,54.1c-2.1,2.1-10.9,5.2-13.7,5.2c-3.1,0-8,0.2-8,1.8c0,1.6,0.4,2.6,0.4,2.6L897.1,849.5z"/>
			<path class="st21" d="M924.3,761.1l2.8,19.3c0,0,6.7,56.4,5.2,58c-1.6,1.6-8.6,6.1-11.8,6.5c-3.2,0.4-7.8,2.5-7.8,4.3
				c0,3.5,36.4,0.7,36.4,0.7s1.2-2.6,0-6.4c-1.2-3.8-1.2-9.2-1.2-10.1c0-0.9,0.1-0.1,0.1-1.5c0-1.4,0-1.8,0-1.8s4.4-26.9-0.3-43.9
				l-1.7-33L924.3,761.1z"/>
			<path class="st16" d="M772.9,572.8c0,0-8.4-0.1-14.2,3.2c-5.8,3.3-7.4,11.1-7.5,17.2c-0.1,7.9,2.4,15.8,7.4,22
				c4.9,6.2,13.6,9,13.6,9l24.4-15.6c0,0,2.9-7.2,0.9-17C795.3,582,795.9,571.3,772.9,572.8z"/>
			<path class="st10" d="M814,824.4c0,0,8.1,11.6,8.6,13.2c0.6,1.6,4.5,12.1,4.5,12.1l30.9-15l-23.7-7.2l-4.7-10.4L814,824.4z"/>
			<path class="st7" d="M773.4,742.4l25.3,52.7l16.6,33.2c0,0,14.8-5.7,18.4-9.4l-11.9-41.9l-13.6-48.5l-28.6-2.6L773.4,742.4z"/>
			<path class="st10" d="M749.6,829.8c0,0,1.2,7.8,1.2,8.3c0,0.5-1.7,8-2,10c-0.3,2,0,3.6,0,3.6l29.3-7c0,0-4.4-2.8-8.2-5
				c-3.9-2.2-4.5-12.5-4.5-12.5L749.6,829.8z"/>
			<path class="st15" d="M745.5,728.6c0,0,5,31.6,4.3,42.2c-1,15.2-5,21-2.2,60.8h20.4c0,0,1.4-21.4,4.6-37.9
				c3.2-16.6,10.1-44.3,10.1-44.3l11.4-25.6L745.5,728.6z"/>
			<path class="st10" d="M757.3,609.8c1,3.1,3.5,5.1,5.6,4.4c2.1-0.7,3-3.7,2-6.8c-1-3.1-3.5-5.1-5.6-4.4
				C757.2,603.7,756.4,606.7,757.3,609.8z"/>
			<path class="st10" d="M792,603.2c0.3,3.2,2.3,5.7,4.4,5.5c2.2-0.2,3.7-3,3.5-6.2c-0.3-3.2-2.3-5.7-4.5-5.5
				C793.3,597.2,791.8,600,792,603.2z"/>
			<g>
				<path class="st22" d="M1092,613.1c4.6-5,14.3-25.8,17.6-31.7c-0.1-0.6-0.3-4,2.3-9.1c1.8-3.6,2.3-10.9,4.3-9.3
					c2,1.6-0.9,7.9,0.9,7.6c1.8-0.4,8.6-13.2,10.4-11.8c1.8,1.4-5.4,13.1-3.8,12.8c1.6-0.3,7.1-11.8,9.6-9.7
					c2.5,2-7.6,12.8-6.2,13.9c1.4,1.1,7.6-5.9,9.6-4.2c2,1.6-8.9,9.1-8,8.9c1-0.2,7.8-2,8.1-0.6c0.4,1.6-16.6,8.1-18.1,11.3l0,0
					c-3,8.8-8.3,24.8-15.2,32.9c-8.5,9.9-33.1,37.4-33.1,37.4l-10.2-19.3C1060.3,642.1,1086.6,619,1092,613.1z"/>
				<path class="st23" d="M1117.8,574c0.6,0.8,1,1.8,1.3,2.8c0,0.2,1.1,3.4-1.1,6.6C1118.7,581.1,1119.4,578.5,1117.8,574z"/>
			</g>
			<path class="st19" d="M747.4,639c0,0,2.4,61.3,0,72.7c-2.4,11.4-3.5,18.9-3.5,18.9s32.8,6.4,64.3-2c0,0-4.7-21.4-6.9-43.6
				c-2.2-22.2-3.9-51.7-3.9-51.7s-12-0.9-21.2,0C755.4,635.2,747.4,639,747.4,639z"/>
			<path class="st10" d="M767,617.7l-0.9,16.8c0,0,1.6,9.3,10.7,9.8c9.2,0.5,6.5-19.2,6.5-19.2l-0.5-7.3H767z"/>
			<path class="st24" d="M783,630.3c0.2,0,0.4,0,0.7,0c-0.1-3-0.4-5.3-0.4-5.3l-0.5-7.3H767l-0.1,2.5
				C768.8,623.6,774.6,630.3,783,630.3z"/>
			<path class="st11" d="M749.3,841.9c0,0,1.1-1.1,4.9-0.8c3.8,0.3,22.7,2.4,23.5,2.4s11.6,8.2,12.1,9.7c0.5,1.5-23.4,0.5-23.4,0.5
				h-18.2C748.2,853.8,746.5,848.4,749.3,841.9z"/>
			<path class="st11" d="M824.4,841.5c0,0-1.1,0.7-1.1,1.8c0,0.7,1.1,5.2,2.4,8.5c0.8,1.9,3,2.7,4.8,1.7l32.8-18.1
				c0,0,2.4-2.1-13.1-3.1L824.4,841.5z"/>
			<path class="st10" d="M747.4,639c0,0-4.7,2-7.4,8.4c-2.7,6.3-11.5,35-5.6,52.1c0,0,2.7,13,16.3,21.9c13.7,8.9,37.5,11.1,38.9,9.7
				c1.3-1.3,1.4-3.7,1.4-5.2c0-1.5,3.1-2.3,3.1-4.3c0-2.1-5.3-2.4-11.4-2.4c0,0-1.1-0.1,0.3-1.1c1.3-1,3-2.3,2.7-4.2
				c-0.3-1.9-1.5-1.8-2.7-0.6c-1.2,1.2-5,4.3-8.1,3.4c-3.1-0.9-21.4-15.9-24.4-20.7C750.5,696.1,751.8,640.1,747.4,639z"/>
			<path class="st13" d="M899.5,641c0,0,9.9-5.5,20.3-6.7c10.5-1.2,25.5,2.7,25.5,2.7l8.7,124.9c0,0-38.9,18.5-68,0
				c0,0,7.8-52.4,7.8-59.8c0-7.4,0-7.4,0-7.4L899.5,641z"/>
			<path class="st12" d="M859.9,843.1c-1-0.1-2,0.5-2.4,1.5c-0.4,1.1-0.2,2.1,0.6,3c1.5,1.5,28.6,6,38,5.8c1,0,2.4-3,1-3.9
				C894.8,848.1,867,843.9,859.9,843.1z"/>
			<path class="st12" d="M867.9,840.3l2.2,4.5l5,1.4c0,0-2.3-8.1-4.3-7.8C868.7,838.8,867.9,840.3,867.9,840.3z"/>
			<path class="st12" d="M912.7,849.4c-0.9,0-1.8,0.6-2.1,1.5c-0.2,0.7-0.3,1.6,0.2,2.1c1.2,1.2,39.8,0.4,39.8,0.4s0.9-2.9-0.7-3.5
				C948.8,849.5,919.4,849.4,912.7,849.4z"/>
			<path class="st12" d="M924.3,843.2c-0.3-0.6-3,0-3.9,1.6l3.4,4.9l4,0L924.3,843.2z"/>
			<path class="st22" d="M1010.4,818.3c0,0-1.6,13.5-4.1,19.4c-2.5,5.9-10.9,9.6-18.2,11.1c-7.3,1.4-4.9,2.6-3.8,3.7
				c1.1,1.1,32.9,1.8,38.5,0.8c0,0-2.2-11.1-2.2-12.8c0-1.7,8.8-28.9,8.8-28.9L1010.4,818.3z"/>
			<path class="st14" d="M1022.8,853.2c0,0-0.4-2.3-0.9-4.9c-6.1,0.8-20.2-0.6-27.2-1.4c-2.2,0.8-4.8,1.1-6.9,1.5
				c-7.3,1.4-6.8,3.4-4.9,4.7C984,854,1017.2,854.2,1022.8,853.2z"/>
			<path class="st22" d="M1073,815.1c0,0-0.9,16.6,0.9,22.6c1.8,6.2,4.5,7.2,11.7,9.2c7.1,2,4.4,5.1,3.3,6.2
				c-1.1,1.1-25.8,1.1-31.5,0.1c0,0,2.2-11.1,2.2-12.8c0-1.7-2.6-29.7-2.6-29.7L1073,815.1z"/>
			<path class="st14" d="M1057.5,853.2c0,0,0.4-2.3,0.9-4.9c6.1,0.8,20.2-0.6,27.2-1.4c2.4,0.6,4.4,1.1,6.5,1.9
				c7,2.6,6.4,3.3,5.3,4.3C1096.4,854.2,1063.1,854.2,1057.5,853.2z"/>
			<path class="st21" d="M945.3,637c0,0-8.4,9.9-4.1,26.6c4.3,16.6,14.8,43.1,27.6,57.8c2.1,2.4,6.9,7.4,9.1,8.9
				c2.2,1.4,11.3,2.4,11.3,2.4s4-12.4,2.9-13.5c-1.2-1.2-10.8-1.3-13.5-3.9C976,712.7,950.5,637,945.3,637z"/>
			<path class="st22" d="M1026.7,636.8c0,0-2.4,1.5-4.2,6c-1.7,4.5-10.7,41.2-12,46.5c-1,4.1-10.1,16.2-14.6,22
				c-1.3,1.7-2.4,3.1-3,3.1c-4,0-10.5,2.2-10.5,3.8c0,1.6,1.6,1.8,4.1,1.2c2.6-0.6,0.6,2.2-0.3,3.2c-0.9,0.9-4.9,6.3-3.5,7.7
				c1.4,1.4,4.8,2.4,6.4,2.4c0.9,0,2.6-0.1,5.8-2.7c2.7-2.2,6.6-6.7,9.5-9.2c10.4-9.3,19-28.8,20.6-33.2
				C1026.6,683.1,1026.7,636.8,1026.7,636.8z"/>
			<path class="st21" d="M993.4,723.7c0,0,1.1,0.1,1.1,2.2c0,2.1-1.8,5.3-3.1,6.6c-1.2,1.2-12.6-1.8-12.6-1.8s4.1,0.1,5.5-1.6
				c0.6-0.8,1.8-4.5,3-4.5c1.2,0-0.1,5-0.1,5s2.3-6.5,3.5-6.5c1.2,0,1.3,1.2,0.8,3.2C990.9,728.3,992.7,723.1,993.4,723.7z"/>
			<path class="st8" d="M1002.5,819.6c0,0,16.8,4.5,35.9,4.5c19.1,0,56.7-9.7,56.7-9.7s-10.4-25-13.9-44.3
				c-3.6-19.2-6.2-52.2-6.2-52.2h-57l-3.6,22.9L1002.5,819.6z"/>
			<path class="st19" d="M1026.7,636.8c0,0-3.7,4.3-3.7,17.7c0,13.4-0.6,33.5-1.7,40.4c-1.1,6.9-4.3,24.1-4.3,24.1s9.5,7.9,34.1,5.7
				c24.6-2.2,25.9-5.5,25.9-5.5s-3.5-55.6-3.5-61.5c0-5.8-5.3-22.7-5.3-22.7s-14.2-1.5-20.7-1
				C1041.1,634.6,1026.7,636.8,1026.7,636.8z"/>
			<path class="st12" d="M1015.5,584.3c0,0-10.4,2.9-9.5,13.6c0.8,9.8,5.6,9.3,5.6,9.3s-3.5,13.9,7.1,17.9c10,3.8,13.8,0,13.8,0
				s4.4,11.5,19.3,7.1c14.9-4.5,13.6-13.5,13.6-13.5s6.3,2.5,13.7-9.2c7.3-11.7,3.2-20.1-6.6-25.2c0,0,3.2-14.8-11.6-17.2
				c-14.9-2.4-18.5,5.8-18.5,5.8s-2.6-9.1-18.5-2.8C1013.6,574.1,1015.5,584.3,1015.5,584.3z"/>
			<path class="st22" d="M1056.6,606.5c-1.1,3.1-0.3,6.1,1.8,6.9c2.1,0.7,4.6-1.1,5.7-4.2c1.1-3.1,0.3-6.1-1.8-6.9
				C1060.2,601.6,1057.7,603.5,1056.6,606.5z"/>
			<path class="st22" d="M1022.8,609.6c0.5,3.2,2.7,5.5,4.8,5.2c2.2-0.3,3.5-3.2,3-6.4c-0.5-3.2-2.7-5.5-4.8-5.2
				C1023.7,603.5,1022.3,606.4,1022.8,609.6z"/>
			<path class="st22" d="M1040.6,623.6l0.6,12.6c0,0,0.3,4.9,5.4,5.5c5.1,0.6,9.8-3.3,9.8-7.3c0-0.5-2.5-17.8-2.5-17.8L1040.6,623.6
				z"/>
			<path class="st23" d="M1053.8,616.7l-13.2,6.9l0.2,4.5c2.4,0,5.9-0.2,8.8-1.9c2.4-1.4,3.7-3.2,4.8-5.7
				C1054,618.2,1053.8,616.7,1053.8,616.7z"/>
			<path class="st10" d="M839,722c0,0,3.2,2.1,5.1,1.6c1.9-0.5,1-1.4,0.1-2.3c-0.9-0.9-3.3-2.1-3.3-2.1L839,722z"/>
			<path class="st10" d="M775.3,581.6c-5.2,0.8-9.1,4.5-11.8,9c-5.5,9-1,22.1,0.5,25.2c1.5,3,7.6,10.8,16.5,10.8
				c9,0,15.2-8.2,16-16.2c1-10.7-1.9-24-12-27.7C781.6,581.6,778.3,581.2,775.3,581.6z"/>
			<path class="st12" d="M919.5,581.9c0,0-4.4-0.2-9.4,2.2c-5,2.4-10.1,13.1-10.1,22.6c0,5.8-2.6,8.2-4.6,9.2
				c-1.1,0.5-1.4,1.9-0.6,2.8c2,2.2,4,4.7,6.6,6.2c9.7,5.7,19.6,5.8,30.5,3.8c8.8-1.6,17.1-5.6,23.4-12.1c1.2-1.2,0.9-3.2-0.6-4
				c-2.1-1.1-4.5-3.5-5.4-8.6C947.4,594.2,943.9,577.2,919.5,581.9z"/>
			<path class="st21" d="M932.7,608.1c-0.7,3.2,0.5,6.1,2.6,6.6c2.1,0.5,4.4-1.7,5.1-4.9c0.7-3.2-0.5-6.1-2.6-6.6
				C935.7,602.7,933.4,604.9,932.7,608.1z"/>
			<ellipse class="st21" cx="905" cy="603.9" rx="4" ry="5.9"/>
			<path class="st21" d="M914.5,624.7l-1.1,14.8c0,0,0.5,3.4,4.5,4.1c4,0.7,12.6-5.3,12.6-8.4l-2-17.1L914.5,624.7z"/>
			<path class="st9" d="M914,632c6.4,0.3,11.5-2.6,15.3-7.8l-0.7-6.1l-14,6.6L914,632z"/>
			<path class="st21" d="M904.6,611.5c1,5.5,2.6,15.2,11.2,16.2c8.6,1,15.1-3.7,19.2-12.1c4.1-8.4,3.1-19.5,0.9-25
				c-1.8-4.4-9.6-4.2-13.4-4.1C909.7,586.6,902.4,599.3,904.6,611.5z"/>
			<path class="st12" d="M917.2,584.6c0,0-0.1,7.1,5.8,13c5.9,5.9,17.7,9,17.7,9l1.4,3.3c0,0,1.9-10.6-2.6-17.6
				C935.1,585.2,917.2,584.6,917.2,584.6z"/>
			<path class="st22" d="M1047.4,582.8c0,0,6.3,1.8,10,8.1c3.8,6.3,6,24.5-7,32.3c-13,7.8-21.7-4.7-22.6-16.3
				C1026.7,593.1,1032.7,580.4,1047.4,582.8z"/>
		</g>
		<path class="st25" d="M1462.7,812.7c0,0,6.2,25.2,10.8,29.1c4.6,4,19.6,11.5,15.7,12.3c-3.9,0.8-33,1.5-32.2-3.4
			c0.8-4.8,1.6-7.9,1.6-7.9l-7.7-18L1462.7,812.7z"/>
		<path class="st12" d="M1491.1,855.2c-7.1,0.7-27.8,1.4-33.8,0.7c0,0-1.1-0.2-0.3-5.1c0.2-1.2,0.4-2.3,0.6-3.2
			c5.5,1.4,17.4-1.6,22.1-2.2c5.1,2.5,10.9,6.1,12.8,6.4C1495.1,852.2,1495.1,854.8,1491.1,855.2z"/>
		<path class="st25" d="M1395,833.9c0,0-0.6,6.4-0.6,9.2c0,2.8,2.6,10.7,1.4,11.9c-1.2,1.2-35.8,1.1-35.8-0.1c0-1.1,6.1-4.6,14.4-7
			c8.3-2.4,11.1-11.6,9-16.9L1395,833.9z"/>
		<path class="st12" d="M1359.3,855c0-1.1,5.7-4.3,13-6.6c7.8,2.6,18.7,0.5,22.8-0.3c1.2,3.3,1.6,6.4,1,7
			C1394.9,856.3,1359.3,856.1,1359.3,855z"/>
		<path class="st19" d="M1432.5,727.4l6.2,5.5c0,0,7,18.9,7.4,20.2c0.6,1.7,23.2,74.7,23.2,74.7l-15.8,5.7c0,0-15.6-30.5-18.2-41
			c-2.6-10.6-28.5-54.8-28.5-54.8L1432.5,727.4z"/>
		<path class="st19" d="M1405.1,738.6l-7.6,96.7h-17.5c0,0-6.3-72.3-4.1-97.8L1405.1,738.6z"/>
		<path class="st13" d="M1374.4,641.3c0,0,11.1-2.9,23.7-3.6c6.5-0.4,15.3,1,15.3,1s8,17.9,10.4,32.6c2.4,14.7,15.3,61.7,15.3,61.7
			s-26.3,20.3-64.8,6.9V641.3z"/>
		<path class="st25" d="M1404.4,625.2c0,0-0.3,11.5,0.7,12.5c1.1,1.1,2.6,2.9,1,5.6c-1.6,2.7-8.5,1-11.7-0.6
			c-3.1-1.5-5.1-4.3-5.1-4.3l1.6-18.2L1404.4,625.2z"/>
		<path class="st6" d="M1399.8,630c-2.2-0.8-6.1-2.3-9-7.1l0.2-2.5l13.4,4.9c0,0-0.1,2.8,0,5.8
			C1402.5,630.9,1400.9,630.3,1399.8,630z"/>
		<path class="st25" d="M1388.6,607.4c0,0-0.3-6.7-4.5-5.4c-4.1,1.3-1,11.5,2.4,11.1C1390,612.7,1388.6,607.4,1388.6,607.4z"/>
		<path class="st25" d="M1401.6,585.4c0,0,6.5-0.1,9.8,4.9c3.3,5,6.9,19.4,1.4,29.4c-5.5,9.9-12.4,7.5-15.3,6.5
			c-2.9-1-8.6-3.2-11.4-12.5C1383.2,604.3,1385.3,583.4,1401.6,585.4z"/>
		<path class="st7" d="M1375.7,641c3,6.7,10.2,21,9.9,36.9c-0.4,16.6-12.8,27.3-12.8,27.3v8.2c0,0,13.8-2.2,19-23.6
			c5.3-21.4-7.4-50.5-7.4-50.5s-1.8-1.3-5.4-0.3C1376.6,639.6,1375.7,641,1375.7,641z"/>
		<path class="st7" d="M1405.9,637.6c0,0,10.3,55.7,23.8,59.3l-2.3-9.5c0,0-13.8-45-13.8-48.7S1405.9,637.6,1405.9,637.6z"/>
		<g>
			<polygon class="st14" points="1433.9,732.9 1393.8,732.9 1393.8,687.1 1433.9,688.9 			"/>
			<g>
				<path class="st6" d="M1433.9,685.3h-38.4c-1,0-1.8,0.8-1.8,1.8l0,0c0,1,0.8,1.8,1.8,1.8h38.4l0,0
					C1431.2,687.9,1431.2,686.3,1433.9,685.3z"/>
				<path class="st19" d="M1432.8,685.9h-35.9c-0.7,0-1.3,0.6-1.3,1.3l0,0c0,0.7,0.6,1.3,1.3,1.3h35.9
					C1431.6,687.6,1431.6,686.6,1432.8,685.9z"/>
			</g>
			<g>
				<path class="st12" d="M1416.3,686.1h-2.5c-0.5,0-1,0.4-1,1v0.1h3.5V686.1z"/>
				<path class="st7" d="M1413.9,686.1c0.6,0,1.5,0.5,2,1.1l6,7.4l3.5,0l-5.7-7.1c-0.7-0.8-1.9-1.5-2.7-1.5L1413.9,686.1z"/>
			</g>
		</g>
		<path class="st25" d="M1374.4,641.3c0,0,3,3,6.3,14.5c3.2,11.5,4.9,38.4,7.7,41.2c2.8,2.8,21.2,17.4,24.5,16.9
			c3.3-0.5,10.7-9.1,13-9.1c2.3,0,2,2.1,0.9,3.2c-1.2,1.2-2.6,2.5-1.9,3.2c0.7,0.7,0.7,0.7,0.7,0.7s10.3-2.7,12-1.7
			c1.7,1-1.7,3.4-1.7,5.1c0,1.7,0.4,1.7,0.2,3.6c-0.2,1.9-0.7,3.4-1.6,4.3c-0.9,0.9-12.2,4.2-23.3,2.7s-24.6-6.8-34.6-19.2
			c-10-12.4-8-51.3-7.8-55.2C1369.4,641.7,1374.4,641.3,1374.4,641.3z"/>
		<g>
			<g>
				<path class="st18" d="M1367.3,515c3.8,10.1,15.1,15.1,25.1,11.3c10.1-3.8,15.1-15.1,11.3-25.2c-3.8-10.1-15.1-15.1-25.1-11.3
					C1368.6,493.7,1363.5,505,1367.3,515z"/>
				<path class="st26" d="M1396.4,507.3c2,5.4-0.7,11.4-6.1,13.4c-5.4,2-11.4-0.7-13.4-6.1L1396.4,507.3z"/>
			</g>
		</g>
	</g>
	<g>
		
			<image style="overflow:visible;opacity:0.16;" width="1420" height="516" xlink:href="A95D99B6.png"  transform="matrix(1 0 0 1 277 702)">
		</image>
		<g>
			<linearGradient id="SVGID_5_" gradientUnits="userSpaceOnUse" x1="292.2875" y1="958.1893" x2="1675.9656" y2="958.1893">
				<stop  offset="0" style="stop-color:#6152AD"/>
				<stop  offset="0.6592" style="stop-color:#5B4CA5"/>
			</linearGradient>
			<path class="st27" d="M829,732c-78.9,14-340.8,72-514,307c-7.7,10.4-15.3,20.8-22.7,31c338.6,107.5,870.5,214,1383.7,18.9
				c-10-14.7-20.3-27-30-37.9c-225.1-254.9-488-313-488-313C1110.2,727.4,985.2,704.3,829,732z"/>
		</g>
	</g>
	
		<radialGradient id="SVGID_6_" cx="98.3084" cy="880.7895" r="166.3869" gradientTransform="matrix(-0.5601 0.8284 1.5265 1.0321 -1139.3923 -109.6958)" gradientUnits="userSpaceOnUse">
		<stop  offset="0" style="stop-color:#F4A662"/>
		<stop  offset="1" style="stop-color:#EC6E82"/>
	</radialGradient>
	<path class="st28" d="M2,969L0,702c31.5-6.2,87.2-0.7,160,18.3c65.4,17.1,135.5,35.4,140,71c3.8,30.6-45.3,38.4-70,89
		c-32.7,67,12.4,137,23,181.7C171.4,1030.4,81.7,1017.2,2,969z"/>
	<path class="st29" d="M1674,64"/>
	<path class="st29" d="M2317,7"/>
	
		<radialGradient id="SVGID_7_" cx="1868" cy="1488.8695" r="278.5811" fx="1664.624" fy="1298.4867" gradientTransform="matrix(6.123234e-17 1 -1 6.123234e-17 3207.8696 -1666.1305)" gradientUnits="userSpaceOnUse">
		<stop  offset="0" style="stop-color:#F4A662"/>
		<stop  offset="1" style="stop-color:#EC6E82"/>
	</radialGradient>
	<path class="st30" d="M1920,0.4h-402c0,0.2,0,0.3,0,0.5c0,222.1,179.9,402.2,402,402.5V0.4z"/>
</g>
</svg>
