<svg xmlns="http://www.w3.org/2000/svg" viewBox="0 0 138.04 38.6"><defs><style>.cls-1{fill:#132c4b;}.cls-2{fill:#f6b47b;}.cls-3{fill:#9bce7a;}.cls-4{fill:#e2a071;}.cls-5{fill:#6e4439;}.cls-6{fill:#5e342e;}.cls-7{fill:#fdc88e;}.cls-8{fill:#623f33;}.cls-9{fill:#8abe69;}.cls-10{fill:#153966;}.cls-11{fill:#ffc84a;}</style></defs><title>Zasób 10</title><g id="Warstwa_2" data-name="Warstwa 2"><g id="Warstwa_1-2" data-name="Warstwa 1"><path class="cls-1" d="M46,18.36c0,.21-.1.31-.29.31H42.22c-.19,0-.29-.12-.29-.35,0-.67,0-1.67.07-3s.08-2.33.08-3c0-.19,0-.3-.09-.31a27.92,27.92,0,0,0-1.33,3.07c-.48,1.17-.95,2.35-1.43,3.52a.45.45,0,0,1-.25.27h-.39c-.35,0-.55-.07-.62-.2q-.54-1.09-1.41-3.18c-.62-1.47-1.09-2.53-1.4-3.18a.22.22,0,0,0-.09-.11.51.51,0,0,0-.07.29c0,.64,0,1.62,0,2.91s.05,2.27.05,2.92c0,.23-.09.35-.28.35H31.51c-.13,0-.21,0-.24-.07a.37.37,0,0,1-.05-.22c0-.72,0-1.8.11-3.25s.1-2.53.1-3.25,0-2.21-.1-4.32c0-.55,0-1.36-.09-2.45V4.94c0-.13.13-.19.42-.19l1.64,0,1.63,0c.08,0,.18.14.31.41l2.9,6.36c.2.43.38.65.52.65s.22-.25.46-.74q1-2.08,3-6.29c.11-.25.23-.38.37-.38l.86,0,.88,0c.17,0,.42,0,.76,0a6.67,6.67,0,0,1,.76,0c.2,0,.3.08.3.23,0,.79,0,2-.09,3.5s-.08,2.72-.08,3.5,0,1.8.09,3.25S46,17.65,46,18.36Z"/><path class="cls-1" d="M57.34,13.79A5,5,0,0,1,56,17.46a5.37,5.37,0,0,1-7.23,0,4.81,4.81,0,0,1-1.41-3.57,5.24,5.24,0,0,1,1.35-3.74,4.76,4.76,0,0,1,3.65-1.43A4.84,4.84,0,0,1,56,10.14,5,5,0,0,1,57.34,13.79Zm-3.25,0a2.16,2.16,0,0,0-.49-1.39,1.54,1.54,0,0,0-1.26-.6,1.61,1.61,0,0,0-1.29.62,2.06,2.06,0,0,0-.48,1.37,2.11,2.11,0,0,0,.48,1.38,1.6,1.6,0,0,0,1.29.61,1.58,1.58,0,0,0,1.28-.61A2.16,2.16,0,0,0,54.09,13.79Z"/><path class="cls-1" d="M69.3,13.82a5.19,5.19,0,0,1-1.19,3.48,4.16,4.16,0,0,1-3.32,1.49,3.38,3.38,0,0,1-2.4-.86.16.16,0,0,0-.12-.05q-.09,0-.18.36c-.06.25-.12.38-.2.41s-1.06.05-2.83.05c-.42,0-.63-.08-.63-.23s0-.07,0-.15a56,56,0,0,0,.2-6q0-4.24-.3-7.38v-.1c0-.11.11-.17.31-.18l1.73-.15c.71-.07,1.28-.1,1.73-.1q.18,0,.18.33c0,.25,0,.59,0,1s-.06.86-.07,1c0,.66,0,1.55,0,2.68,0,.2,0,.31.15.31a.19.19,0,0,0,.15-.08,3.05,3.05,0,0,1,2.34-.95,4.19,4.19,0,0,1,3.4,1.47A5.53,5.53,0,0,1,69.3,13.82Zm-3.59-.11a2,2,0,0,0-.51-1.4,1.69,1.69,0,0,0-1.32-.57,1.63,1.63,0,0,0-1.31.57,2.12,2.12,0,0,0-.48,1.42,2.08,2.08,0,0,0,.46,1.41,1.72,1.72,0,0,0,1.35.56,1.66,1.66,0,0,0,1.34-.58A2.12,2.12,0,0,0,65.71,13.71Z"/><path class="cls-1" d="M74.18,14.11q0,.73,0,2.16c0,1,0,1.67,0,2.15,0,.14-.08.22-.25.25a11.31,11.31,0,0,1-1.51.06A11.48,11.48,0,0,1,71,18.67c-.15,0-.24-.07-.27-.13a1.38,1.38,0,0,1,0-.3c0-.45,0-1.14,0-2.06s0-1.6,0-2.07a35.21,35.21,0,0,0-.22-4.48c0-.11,0-.18,0-.21s.09-.2.27-.2.47,0,.85.06.66.06.86.06.48,0,.86-.05.67,0,.86,0,.24.07.24.2,0,.09,0,.19A41.77,41.77,0,0,0,74.18,14.11Zm.26-7.37c0,1.15-.65,1.73-1.94,1.73A2.13,2.13,0,0,1,71.12,8a1.57,1.57,0,0,1-.6-1.29,1.56,1.56,0,0,1,.62-1.27A2.11,2.11,0,0,1,72.5,5a2.07,2.07,0,0,1,1.34.47A1.56,1.56,0,0,1,74.44,6.74Z"/><path class="cls-1" d="M79.71,12.69c0,1.81,0,3.2,0,4.16,0,.16,0,.42,0,.79s0,.6,0,.78-.08.22-.25.25a11.18,11.18,0,0,1-1.61.08,8.7,8.7,0,0,1-1.51-.08.29.29,0,0,1-.25-.27V18c0-.59,0-1.47,0-2.64s0-2.05,0-2.64c0-2.77,0-4,0-3.8A30.49,30.49,0,0,0,76,5.11a1.49,1.49,0,0,1,0-.17c0-.14.09-.21.26-.21h3.54c.17,0,.24.07.23.2v.18Q79.72,9.4,79.71,12.69Z"/><path class="cls-1" d="M91.39,18.38a.29.29,0,0,1-.28.31,13.51,13.51,0,0,1-1.45,0,11,11,0,0,1-1.54-.06.37.37,0,0,1-.3-.41q0-.47,0-1.41c0-.63,0-1.1,0-1.42s0-.61,0-1.09,0-.85,0-1.1c0-.91-.4-1.36-1.18-1.36a1.72,1.72,0,0,0-.91.34c-.37.25-.55.5-.55.74v5.36a.33.33,0,0,1-.31.37c-.23,0-.7,0-1.42,0A11.53,11.53,0,0,1,82,18.67a.31.31,0,0,1-.3-.33c0-.51,0-1.29,0-2.33s0-1.82,0-2.34a15.17,15.17,0,0,0-.39-3.88,1,1,0,0,1,0-.15.22.22,0,0,1,.15-.22l1.66-.22c1.06-.2,1.65-.31,1.78-.31s.13.23.17.67.1.67.17.67.28-.23,1.07-.69a4.21,4.21,0,0,1,2-.69,3.53,3.53,0,0,1,2.11.6,2.22,2.22,0,0,1,.94,1.91v3.16c0,.43,0,1.07,0,1.93S91.39,18,91.39,18.38Z"/><path class="cls-1" d="M102.14,13.28c0,.67-.22,1.05-.65,1.14l-2,.22c-.78.09-2,.19-3.49.31a1.38,1.38,0,0,0,.84,1,2.9,2.9,0,0,0,1.31.28,3.75,3.75,0,0,0,1.78-.48l.75-.47a2.87,2.87,0,0,1,.7,1,3.61,3.61,0,0,1,.49,1.16.51.51,0,0,1-.15.23A4.92,4.92,0,0,1,97.91,19a5.31,5.31,0,0,1-3.81-1.38,4.91,4.91,0,0,1-1.49-3.74,5.39,5.39,0,0,1,1.33-3.75,4.68,4.68,0,0,1,3.63-1.5A4.31,4.31,0,0,1,100.81,10,4.62,4.62,0,0,1,102.14,13.28Zm-3.47-.61a1.54,1.54,0,0,0-.44-1.08,1.38,1.38,0,0,0-1-.46,1.27,1.27,0,0,0-1,.52,1.83,1.83,0,0,0-.37,1.14c0,.18.09.27.28.27a16.28,16.28,0,0,0,2.28-.23C98.56,12.8,98.67,12.75,98.67,12.67Z"/><path class="cls-1" d="M43.11,24.28a5.81,5.81,0,0,1-1.26,3.89,4.64,4.64,0,0,1-3.72,1.58c-.27,0-.66,0-1.2,0s-.93-.05-1.19-.05-.43.12-.43.37,0,.75.09,1.36.09,1,.09,1.35c0,.15-.07.23-.21.23l-1.82,0-1.81,0a.26.26,0,0,1-.29-.29c0-.74,0-1.84,0-3.31s0-2.58,0-3.31q0-3.12-.27-6.55V19.3c0-.13.09-.2.3-.23C32,19,33.1,19,34.86,19c1,0,2,0,3,0a5.44,5.44,0,0,1,3.79,1.48A5.09,5.09,0,0,1,43.11,24.28Zm-4,.16a2,2,0,0,0-2.25-2.31c-1.06,0-1.62.06-1.67.18a17.24,17.24,0,0,0-.07,2.29c0,.2,0,.51,0,.91s0,.7,0,.91.6.19,1.79.19A1.91,1.91,0,0,0,39.15,24.44Z"/><path class="cls-1" d="M51,26.71c0,.26-.14.39-.43.39l-.55,0-.54,0a1.78,1.78,0,0,0-1.12.26,1.36,1.36,0,0,0-.3,1c0,.29,0,.72,0,1.3s0,1,0,1.29,0,.48,0,.86,0,.66,0,.85-.11.25-.33.27-.8,0-1.45,0a14.9,14.9,0,0,1-1.51-.06q-.33,0-.33-.33c0-.53,0-1.32,0-2.38s0-1.85,0-2.38A14.22,14.22,0,0,0,44.12,24a.93.93,0,0,1,0-.14.19.19,0,0,1,.15-.2c.37,0,.9-.12,1.6-.22l1.62-.31c.12,0,.19.21.23.63s.09.62.17.62c-.09,0,.18-.17.82-.52a3.78,3.78,0,0,1,1.83-.52c.37,0,.56.08.56.24a7.66,7.66,0,0,1-.06.81c0,.38-.06.65-.07.82s0,.44,0,.76S51,26.59,51,26.71Z"/><path class="cls-1" d="M59.78,33c-.22,0-.54,0-1-.06s-.76-.08-.94-.08c-.43,0-1.12,0-2.06,0s-1.85,0-2.3,0l-.69.06a7,7,0,0,1-.71,0Q52,33,52,32.76v-.67c0-.32,0-.54,0-.65a3.82,3.82,0,0,0-.06-.56,4.06,4.06,0,0,1-.07-.53.34.34,0,0,1,.15-.26,43.38,43.38,0,0,0,3.71-3.54c-.15,0-.38,0-.69,0l-.7,0-1.09,0-1.09,0c-.11,0-.17,0-.17-.11a8.76,8.76,0,0,1,.31-1.34,6.63,6.63,0,0,0,.31-1.64c0-.11.11-.17.35-.17l1.18.13c.63.06,1.49.1,2.58.1l1.6,0c.71,0,1.24,0,1.6,0s.33.09.33.28v2.14q0,.33-3.78,4a26,26,0,0,0,4-.2l.13,0c.09,0,.14,0,.14.11a10.34,10.34,0,0,0-.42,1.57q-.07.46-.24,1.41A.22.22,0,0,1,59.78,33Z"/><path class="cls-1" d="M70.74,27.51c0,.67-.22,1-.65,1.14l-2,.22c-.78.08-2,.19-3.49.3a1.42,1.42,0,0,0,.84,1,3,3,0,0,0,1.31.27A3.73,3.73,0,0,0,68.48,30l.75-.48a3.11,3.11,0,0,1,.7,1,3.62,3.62,0,0,1,.49,1.17.45.45,0,0,1-.15.22,4.89,4.89,0,0,1-3.76,1.3A5.31,5.31,0,0,1,62.7,31.8a4.9,4.9,0,0,1-1.49-3.74,5.36,5.36,0,0,1,1.33-3.74,4.69,4.69,0,0,1,3.63-1.51,4.35,4.35,0,0,1,3.24,1.39A4.61,4.61,0,0,1,70.74,27.51Zm-3.47-.61a1.54,1.54,0,0,0-.44-1.08,1.39,1.39,0,0,0-1-.47,1.28,1.28,0,0,0-1,.53A1.79,1.79,0,0,0,64.38,27c0,.18.09.27.28.27a17.83,17.83,0,0,0,2.28-.23C67.16,27,67.27,27,67.27,26.9Z"/><path class="cls-1" d="M82.35,18.81c0-.14,0,.08-.08.66-.07.73-.13,1.67-.17,2.82S82,25.06,82,26.71a51.55,51.55,0,0,0,.23,5.84c0,.12,0,.2,0,.24s0,.11-.15.13S81,33,79.49,33c-.35,0-.56-.07-.61-.21s0-.51,0-.76a.48.48,0,0,0-.08-.16.64.64,0,0,0-.15.12,3.69,3.69,0,0,1-2.68,1,4.18,4.18,0,0,1-3.35-1.46A5.21,5.21,0,0,1,71.37,28a5.32,5.32,0,0,1,1.19-3.56A4.17,4.17,0,0,1,75.93,23a2.94,2.94,0,0,1,2.33.95c.09.11.16.16.2.16s.09-.08.09-.25c0-.51,0-1.27,0-2.29s0-1.77,0-2.27c0-.19,0-.3.16-.33l1.75-.12a15.31,15.31,0,0,0,1.75-.24C82.28,18.57,82.35,18.65,82.35,18.81Zm-3.74,9.12a1.93,1.93,0,0,0-.55-1.37A1.73,1.73,0,0,0,76.74,26a1.59,1.59,0,0,0-1.29.59A2.15,2.15,0,0,0,75,28a2,2,0,0,0,.48,1.36,1.59,1.59,0,0,0,1.29.6,1.7,1.7,0,0,0,1.33-.6A2,2,0,0,0,78.61,27.93Z"/><path class="cls-1" d="M89.62,24.87a.57.57,0,0,1-.14.27,2.15,2.15,0,0,0-.56-.07,1.76,1.76,0,0,0-1,.25.94.94,0,0,0-.48.85,1.49,1.49,0,0,0,.51.88,10.93,10.93,0,0,1,.94,1.08,2.85,2.85,0,0,1,.51,1.62,3.3,3.3,0,0,1-.2,1.07,2,2,0,0,1-.58.91,6.73,6.73,0,0,1-1.71,1.08,5.06,5.06,0,0,1-2,.45c-.13,0-.43-.36-.89-1.07a4.39,4.39,0,0,1-.69-1.32c0-.06,0-.09.11-.11l1.4-.26c.58-.18.87-.49.87-.91a1.61,1.61,0,0,0-.5-1c-.6-.67-.92-1-.94-1.06A2.57,2.57,0,0,1,83.82,26a3,3,0,0,1,1.51-2.53,5,5,0,0,1,2.89-.92c.1,0,.36.35.78,1.06A4.88,4.88,0,0,1,89.62,24.87Z"/><path class="cls-1" d="M98.69,33c-.22,0-.54,0-1-.06s-.75-.08-.94-.08c-.43,0-1.11,0-2,0-1.09,0-1.86,0-2.31,0l-.69.06A7,7,0,0,1,91,33c-.12,0-.17-.08-.17-.24s0-.39,0-.67,0-.54,0-.65a3.82,3.82,0,0,0-.06-.56,3.65,3.65,0,0,1-.06-.53.36.36,0,0,1,.14-.26,45.07,45.07,0,0,0,3.72-3.54c-.16,0-.39,0-.7,0l-.7,0-1.09,0-1.09,0c-.11,0-.17,0-.17-.11a8.76,8.76,0,0,1,.31-1.34,6.63,6.63,0,0,0,.31-1.64c0-.11.12-.17.35-.17l1.18.13c.63.06,1.49.1,2.58.1l1.6,0c.71,0,1.25,0,1.6,0s.33.09.33.28v2.14q0,.33-3.78,4a25.87,25.87,0,0,0,4-.2l.13,0c.09,0,.14,0,.14.11a10.34,10.34,0,0,0-.42,1.57c0,.31-.12.78-.24,1.41A.22.22,0,0,1,98.69,33Z"/><path class="cls-1" d="M111.59,26.42a3.6,3.6,0,0,1-2.16,3.33c-.13.07-.2.14-.2.21a6.33,6.33,0,0,0,.93,1.4,15.87,15.87,0,0,1,.92,1.3c0,.18-.88.27-2.63.27-.67,0-1.06-.09-1.17-.26-.27-.45-.68-1.08-1.24-1.91a12.28,12.28,0,0,0-1.79-.14c0,.21,0,.54,0,1s0,.78,0,1a.29.29,0,0,1-.29.33c-.11,0-.64,0-1.56,0s-1.27,0-1.4,0-.27-.17-.27-.41V26.44q0-1.23-.09-3.66c-.06-1.62-.09-2.83-.09-3.64,0-.16.09-.24.27-.25.35,0,.87,0,1.58,0q.27,0,1-.12a6.82,6.82,0,0,1,1-.09c.11,0,.16.1.16.29s0,.6-.06,1-.07.85-.08,1q-.09,2.13-.09,3.3c0,.19,0,.28.07.29a1.4,1.4,0,0,0,.24-.22A4.21,4.21,0,0,1,107.71,23a4.37,4.37,0,0,1,2.75.8A3.06,3.06,0,0,1,111.59,26.42Zm-3.94.64c0-.8-.46-1.2-1.36-1.2a2.28,2.28,0,0,0-1.29.46,1.33,1.33,0,0,0-.74,1.06c0,.55.08.88.23,1a2.94,2.94,0,0,0,1.14.12C107,28.49,107.65,28,107.65,27.06Z"/><path class="cls-1" d="M122.32,28a5,5,0,0,1-1.38,3.68,5.38,5.38,0,0,1-7.23,0,4.78,4.78,0,0,1-1.41-3.57,5.21,5.21,0,0,1,1.35-3.73A4.77,4.77,0,0,1,117.3,23a4.85,4.85,0,0,1,3.63,1.41A4.93,4.93,0,0,1,122.32,28Zm-3.25,0a2.1,2.1,0,0,0-.49-1.38,1.54,1.54,0,0,0-1.26-.6,1.6,1.6,0,0,0-1.29.61,2.25,2.25,0,0,0,0,2.75,1.61,1.61,0,0,0,1.29.62,1.59,1.59,0,0,0,1.28-.62A2.12,2.12,0,0,0,119.07,28Z"/><path class="cls-1" d="M127.14,26.92c0,1.81,0,3.19,0,4.16q0,.23,0,.78c0,.34,0,.6,0,.79s-.09.22-.25.25a11.28,11.28,0,0,1-1.61.08,8.93,8.93,0,0,1-1.52-.08.32.32,0,0,1-.25-.27V32.2c0-.59,0-1.47,0-2.64s0-2.06,0-2.64c0-2.78,0-4,0-3.8a32.78,32.78,0,0,0-.24-3.78.59.59,0,0,1,0-.17c0-.14.08-.22.25-.22h3.55c.16,0,.24.07.22.21v.18Q127.14,23.63,127.14,26.92Z"/><path class="cls-1" d="M138,27.51c0,.67-.21,1-.64,1.14l-2.06.22c-.78.08-1.94.19-3.49.3a1.42,1.42,0,0,0,.84,1,3.07,3.07,0,0,0,1.31.27,3.71,3.71,0,0,0,1.78-.47l.75-.48a3,3,0,0,1,.7,1,3.75,3.75,0,0,1,.5,1.17.45.45,0,0,1-.15.22,4.9,4.9,0,0,1-3.76,1.3A5.32,5.32,0,0,1,130,31.8a4.89,4.89,0,0,1-1.48-3.74,5.32,5.32,0,0,1,1.33-3.74,4.68,4.68,0,0,1,3.63-1.51,4.31,4.31,0,0,1,3.23,1.39A4.61,4.61,0,0,1,138,27.51Zm-3.47-.61a1.54,1.54,0,0,0-.44-1.08,1.37,1.37,0,0,0-1-.47,1.25,1.25,0,0,0-1,.53,1.8,1.8,0,0,0-.38,1.14c0,.18.09.27.28.27a17.83,17.83,0,0,0,2.28-.23C134.46,27,134.57,27,134.57,26.9Z"/><path class="cls-2" d="M26.08,36.36l-.9-7.16a2,2,0,0,0-1.35-1.65l-4-1.35a.68.68,0,0,0-.83.39l-1-.33A1.33,1.33,0,0,1,17,25V22.85l2.87-1.2A4,4,0,0,0,22.36,18V17.3a2,2,0,0,0,2-2A1.94,1.94,0,0,0,23.82,14c.34-1.9,1.17-7.26.54-10.62A9,9,0,0,0,23,0a38.81,38.81,0,0,0-8.65,1.33L13.71,0S6.35,0,4.39,3.33h0s-3.32,0-3.32,4A45.18,45.18,0,0,0,2.24,14a2,2,0,0,0-.51,1.33,2,2,0,0,0,2,2V18a4,4,0,0,0,2.46,3.68l2.86,1.2V25a1.32,1.32,0,0,1-.91,1.26l-1,.33a.67.67,0,0,0-.83-.39l-4,1.35A2,2,0,0,0,.91,29.2L0,36.36A2,2,0,0,0,2,38.6H24.09A2,2,0,0,0,26.08,36.36Z"/><path class="cls-3" d="M6.72,38.6H19.37V26.33a1.23,1.23,0,0,0-.71.52,6.64,6.64,0,0,1-11.23,0,1.23,1.23,0,0,0-.71-.52Z"/><path class="cls-4" d="M9.05,22.79V25a1.34,1.34,0,0,1-.64,1.14A9,9,0,0,0,17,22.79Z"/><path class="cls-5" d="M2.4,14.64,23,0a9,9,0,0,1,1.33,3.33c.78,4.14-.67,11.31-.67,11.31Z"/><path class="cls-6" d="M13.71,0S6.35,0,4.39,3.33h0s-3.32,0-3.32,4A53.36,53.36,0,0,0,2.4,14.64S16.57,8.35,23,0a38.81,38.81,0,0,0-8.65,1.33Z"/><path class="cls-7" d="M22.36,13.31V12A3.33,3.33,0,0,0,19,8.65h-12A3.33,3.33,0,0,0,3.73,12v1.33a2,2,0,1,0,0,4V18a4,4,0,0,0,2.46,3.68l4.3,1.8a6.8,6.8,0,0,0,2.56.51h0a6.87,6.87,0,0,0,2.56-.51l4.3-1.8A4,4,0,0,0,22.36,18V17.3a2,2,0,1,0,0-4Z"/><path class="cls-8" d="M8.39,16h0a.67.67,0,0,1-.67-.66v-.67A.67.67,0,0,1,8.39,14h0a.67.67,0,0,1,.66.66v.67A.67.67,0,0,1,8.39,16Z"/><path class="cls-8" d="M17.7,16h0a.67.67,0,0,1-.66-.66v-.67A.67.67,0,0,1,17.7,14h0a.67.67,0,0,1,.67.66v.67A.67.67,0,0,1,17.7,16Z"/><path class="cls-4" d="M13.05,20.65a5.53,5.53,0,0,1-3-.8.67.67,0,0,1-.18-.92.66.66,0,0,1,.93-.18,4.23,4.23,0,0,0,2.29.57,4.22,4.22,0,0,0,2.28-.57.67.67,0,1,1,.75,1.1A5.49,5.49,0,0,1,13.05,20.65Z"/><path class="cls-2" d="M19,10.65v-2h-12a3.71,3.71,0,0,0-.67.07h0A3.33,3.33,0,0,0,3.73,12v1.33a2,2,0,1,0,0,4V18a4,4,0,0,0,2.46,3.69l4.3,1.79.64.23a28.1,28.1,0,0,1-3.91-3.4,3.14,3.14,0,0,1-.83-2.14V11.25A17.93,17.93,0,0,1,19,10.65Z"/><path class="cls-9" d="M20.19,26.34a1.32,1.32,0,0,0-1.53.51,6.64,6.64,0,0,1-11.23,0,1.31,1.31,0,0,0-1.52-.51l-.22.07a8,8,0,0,0,14.71,0Z"/><path class="cls-1" d="M9.05,38.6,7.18,26.73a.67.67,0,0,0-.87-.53l-4,1.35A2,2,0,0,0,.91,29.2L0,36.36A2,2,0,0,0,2,38.6Z"/><path class="cls-1" d="M17,38.6l1.87-11.87a.67.67,0,0,1,.87-.53l4,1.35a2,2,0,0,1,1.35,1.65l.9,7.16a2,2,0,0,1-2,2.24Z"/><path class="cls-10" d="M24.78,28.23a2,2,0,0,1,.4,1l.9,7.16a2,2,0,0,1-2,2.24H20.37V34.78a4,4,0,0,1,1-2.63Z"/><path class="cls-11" d="M26,35.9a2.65,2.65,0,0,1-.64-5.1Z"/><path class="cls-5" d="M14.21,8.49A7.64,7.64,0,0,1,19.7,12a10.44,10.44,0,0,0-.27-3.49Z"/><path class="cls-10" d="M1.31,28.23a2.09,2.09,0,0,0-.4,1L0,36.36A2,2,0,0,0,2,38.6H5.72V34.78a4,4,0,0,0-1-2.63Z"/></g></g></svg>